<?xml version="1.0" standalone="no"?>
<!DOCTYPE svg PUBLIC "-//W3C//DTD SVG 1.1//EN" "http://www.w3.org/Graphics/SVG/1.1/DTD/svg11.dtd" >
<!--
2013-9-30: Created.
-->
<svg>
<metadata>
Created by iconfont
</metadata>
<defs>

<font id="iconfont" horiz-adv-x="1024" >
  <font-face
    font-family="iconfont"
    font-weight="500"
    font-stretch="normal"
    units-per-em="1024"
    ascent="896"
    descent="-128"
  />
    <missing-glyph />
    
    <glyph glyph-name="x" unicode="x" horiz-adv-x="1001"
d="M281 543q-27 -1 -53 -1h-83q-18 0 -36.5 -6t-32.5 -18.5t-23 -32t-9 -45.5v-76h912v41q0 16 -0.5 30t-0.5 18q0 13 -5 29t-17 29.5t-31.5 22.5t-49.5 9h-133v-97h-438v97zM955 310v-52q0 -23 0.5 -52t0.5 -58t-10.5 -47.5t-26 -30t-33 -16t-31.5 -4.5q-14 -1 -29.5 -0.5
t-29.5 0.5h-32l-45 128h-439l-44 -128h-29h-34q-20 0 -45 1q-25 0 -41 9.5t-25.5 23t-13.5 29.5t-4 30v167h911zM163 247q-12 0 -21 -8.5t-9 -21.5t9 -21.5t21 -8.5q13 0 22 8.5t9 21.5t-9 21.5t-22 8.5zM316 123q-8 -26 -14 -48q-5 -19 -10.5 -37t-7.5 -25t-3 -15t1 -14.5
t9.5 -10.5t21.5 -4h37h67h81h80h64h36q23 0 34 12t2 38q-5 13 -9.5 30.5t-9.5 34.5q-5 19 -11 39h-368zM336 498v228q0 11 2.5 23t10 21.5t20.5 15.5t34 6h188q31 0 51.5 -14.5t20.5 -52.5v-227h-327z" />
    

    
    <glyph glyph-name="icon_tip_off" unicode="&#58932;" d="M96 736h-15.936c-26.56 0-48.064 21.312-48.064 48 0 26.496 21.472 48 48.064 48h127.872c26.56 0 48.064-21.312 48.064-48 0-26.496-21.472-48-48.064-48h-15.936v-815.136c0-26.688-21.312-48.288-48-48.288-26.496 0-48 21.344-48 48.288v815.136zM256 640.192c0 35.232 28.48 63.808 63.712 63.808h640.288l-128-256 128-256h-640.288c-35.2 0-63.712 28.64-63.712 63.808v384.384z"  horiz-adv-x="1024" />

    
    <glyph glyph-name="weizhi" unicode="&#58929;" d="M530.422581 882.179226c-219.911572 0-398.185838-178.276313-398.185838-398.180721 0-219.911572 312.041876-556.458561 312.041876-556.458561 47.574528-55.533804 125.432781-55.815213 172.540682 0.293689 0 0 311.781956 336.254324 311.781955 556.165895 0.001023 219.904409-178.267103 398.179698-398.178675 398.179698z m0-569.656141c-101.743242 0-184.207395 82.470293-184.207395 184.195116 0 101.743242 82.464153 184.205349 184.207395 184.205349 101.724823 0 184.186929-82.462107 184.18693-184.205349 0-101.724823-82.462107-184.195116-184.18693-184.195116z"  horiz-adv-x="1024" />

    
    <glyph glyph-name="sousuo" unicode="&#59744;" d="M959.620225 15.369292l-78.289064-79.004355-214.536144 215.776391c-63.155389-48.677653-141.809773-77.905324-227.389894-77.905324-207.342302 0-375.432625 169.634492-375.432624 378.875027S232.061798 831.995267 439.4041 831.995267c207.333092 0 375.419322-169.623235 375.419322-378.87298 0-82.510202-26.41358-158.650323-70.803579-220.847897l215.600382-216.905098zM439.4041 740.128977c-157.091828 0-284.436144-128.490419-284.436144-287.007713 0-158.52241 127.338177-287.025109 284.436144-287.025109 157.058059 0 284.396235 128.502699 284.396235 287.025109 0 158.517293-127.337153 287.007713-284.396235 287.007713z"  horiz-adv-x="1024" />

    
    <glyph glyph-name="didian" unicode="&#58966;" d="M512 832C264.594 832 64 631.443 64 384c0-247.407 200.594-448 448-448s448 200.594 448 448c0 247.443-200.594 448-448 448z m37.334-819.484V160h-74.667v-147.484c-176.393 17.512-316.641 157.783-334.152 334.152H288v74.666H140.514c17.51 176.395 157.759 316.644 334.153 334.153V608h74.667V755.487c176.395-17.509 316.645-157.758 334.152-334.153H736v-74.666h147.486c-17.511-176.367-157.758-316.641-334.152-334.152zM512 458.667c-41.234 0-74.666-33.433-74.666-74.667 0-41.235 33.432-74.667 74.666-74.667s74.667 33.432 74.667 74.667-33.433 74.667-74.667 74.667z"  horiz-adv-x="1024" />

    
    <glyph glyph-name="pdf" unicode="&#58933;" d="M160 864c-12 0-24.8-4.8-33.6-14.4S112 828 112 816v-864c0-12 4.8-24.8 14.4-33.6 9.6-9.6 21.6-14.4 33.6-14.4h704c12 0 24.8 4.8 33.6 14.4 9.6 9.6 14.4 21.6 14.4 33.6V592L640 864H160zM912 592H688c-12 0-24.8 4.8-33.6 14.4-9.6 8.8-14.4 21.6-14.4 33.6V864l272-272zM696 52.8c-50.4 0-95.2 86.4-119.2 142.4-40 16.8-84 32-126.4 42.4-37.6-24.8-100.8-61.6-149.6-61.6-30.4 0-52 15.2-60 41.6-6.4 21.6-0.8 36.8 5.6 44.8 12.8 17.6 39.2 26.4 79.2 26.4 32 0 72.8-5.6 118.4-16.8 29.6 20.8 59.2 44.8 85.6 70.4-12 56-24.8 146.4 8 188 16 20 40.8 26.4 70.4 17.6 32.8-9.6 44.8-29.6 48.8-44.8 13.6-54.4-48.8-128-91.2-171.2 9.6-37.6 21.6-76.8 36.8-112.8C663.2 192 735.2 152 743.2 108c3.2-15.2-1.6-29.6-13.6-41.6-10.4-8.8-21.6-13.6-33.6-13.6z m-74.4 121.6c30.4-61.6 59.2-90.4 74.4-90.4 2.4 0 5.6 0.8 10.4 4.8 5.6 5.6 5.6 9.6 4.8 12.8-3.2 16-28.8 42.4-89.6 72.8z m-296 82.4c-39.2 0-50.4-9.6-53.6-13.6-0.8-1.6-4-5.6-0.8-16.8 2.4-9.6 8.8-19.2 29.6-19.2 25.6 0 62.4 14.4 105.6 40-31.2 6.4-58.4 9.6-80.8 9.6z m158.4 4.8c25.6-7.2 52-16 76.8-25.6-8.8 23.2-16 47.2-22.4 70.4-17.6-15.2-36-30.4-54.4-44.8zM583.2 520c-8.8 0-15.2-3.2-20.8-9.6-16.8-20.8-18.4-73.6-5.6-140.8 48.8 52 75.2 100 68.8 125.6-0.8 4-4 15.2-26.4 21.6-6.4 2.4-11.2 3.2-16 3.2z"  horiz-adv-x="1024" />

    
    <glyph glyph-name="yuanquan" unicode="&#58914;" d="M513.792 772.59264c52.5568 0 103.47008-10.2656 151.34208-30.51008 46.28992-19.57888 87.89504-47.63648 123.648-83.39456 35.75296-35.75808 63.81056-77.35808 83.39456-123.65312 20.24448-47.86688 30.51008-98.78016 30.51008-151.33696s-10.2656-103.47008-30.51008-151.33696c-19.584-46.29504-47.6416-87.90016-83.39456-123.65312s-77.35808-63.81568-123.648-83.39456c-47.872-20.24448-98.78528-30.51008-151.34208-30.51008s-103.47008 10.2656-151.34208 30.51008c-46.29504 19.57888-87.89504 47.6416-123.65312 83.39456s-63.81056 77.35808-83.39456 123.65312c-20.2496 47.86688-30.51008 98.78016-30.51008 151.33696s10.2656 103.47008 30.51008 151.33696c19.57888 46.29504 47.63648 87.89504 83.39456 123.65312 35.75296 35.75296 77.35808 63.81056 123.65312 83.39456 47.86688 20.24448 98.78528 30.51008 151.34208 30.51008m0 122.79808C231.1936 895.39072 2.0992 666.29632 2.0992 383.69792 2.0992 101.0944 231.1936-128 513.792-128s511.68768 229.0944 511.68768 511.69792c0 282.5984-229.08928 511.6928-511.68768 511.6928z"  horiz-adv-x="1026" />

    
    <glyph glyph-name="tianjiajiahaowubiankuang" unicode="&#58925;" d="M984.615 423.385h-433.23v433.23C551.385 878.671 534.056 896 512 896s-39.385-17.329-39.385-39.385v-433.23H39.385C17.329 423.385 0 406.056 0 384s17.329-39.385 39.385-39.385h433.23v-433.23C472.615-110.671 489.944-128 512-128s39.385 17.329 39.385 39.385v433.23h433.23c22.056 0 39.385 17.329 39.385 39.385s-17.329 39.385-39.385 39.385z"  horiz-adv-x="1024" />

    
    <glyph glyph-name="delete" unicode="&#58881;" d="M512 864C246.4 864 32 649.6 32 384s214.4-480 480-480 480 214.4 480 480S777.6 864 512 864m201.6-681.6c-12.8-12.8-35.2-12.8-48 0L512 336l-153.6-153.6c-12.8-12.8-35.2-12.8-48 0-12.8 12.8-12.8 35.2 0 48l153.6 153.6-153.6 153.6c-12.8 12.8-12.8 35.2 0 48 12.8 12.8 35.2 12.8 48 0l153.6-153.6 153.6 153.6c12.8 12.8 35.2 12.8 48 0 12.8-12.8 12.8-35.2 0-48L560 384l153.6-153.6c16-12.8 16-35.2 0-48m0 0z"  horiz-adv-x="1024" />

    
    <glyph glyph-name="icon_manager_del" unicode="&#58893;" d="M348.16 465.92l40.96 0 0-327.68-40.96 0 0 327.68ZM491.52 465.92l40.96 0 0-327.68-40.96 0 0 327.68ZM634.88 465.92l40.96 0 0-327.68-40.96 0 0 327.68ZM746.2912 670.72H942.08a20.48 20.48 0 0 0 20.48-20.48v-18.0224a20.48 20.48 0 0 0-20.48-20.48h-93.3888v-619.13088c0-27.17696-23.10144-47.69792-49.9712-47.69792H225.28c-26.86976 0-49.9712 20.52096-49.9712 47.69792V611.7376H81.92a20.48 20.48 0 0 0-20.48 20.48V650.24a20.48 20.48 0 0 0 20.48 20.48h195.7888V752.64A49.9712 49.9712 0 0 0 327.68 802.6112h368.64A49.9712 49.9712 0 0 0 746.2912 752.64v-81.92z m-58.9824 0V743.6288H336.6912V670.72h350.6176z m102.4-58.9824H234.2912v-607.8464h555.4176V611.7376z"  horiz-adv-x="1024" />

    
    <glyph glyph-name="icon_manager_end" unicode="&#58894;" d="M482.5088 743.6288H264.99072l-109.2608-174.1824H482.5088V743.6288z m58.9824 0v-174.1824h326.77888L759.00928 743.6288H541.4912z m350.6176-233.1648H131.8912V44.8512h760.2176V510.464z m-810.27072 52.224l133.28384 212.43904a58.79808 58.79808 0 0 0 49.7664 27.48416h494.22336c20.21376 0 39.0144-10.38336 49.78688-27.52512l133.26336-212.41856c5.8368-9.3184 8.92928-20.0704 8.92928-31.06816v-487.09632a58.69568 58.69568 0 0 0-58.75712-58.63424H131.6864a58.69568 58.69568 0 0 0-58.75712 58.63424V531.59936c0 10.99776 3.09248 21.74976 8.92928 31.06816zM400.81408 370.9952H623.2064v46.4896H400.7936v-46.4896z m-20.48 87.4496H643.6864a20.48 20.48 0 0 0 20.48-20.48v-87.4496a20.48 20.48 0 0 0-20.48-20.48H380.3136a20.48 20.48 0 0 0-20.48 20.48v87.4496a20.48 20.48 0 0 0 20.48 20.48z"  horiz-adv-x="1024" />

    
    <glyph glyph-name="icon_manager_edit" unicode="&#58895;" d="M931.4304 543.9488H113.0496l26.15296-478.6176h766.07488l26.13248 478.6176zM111.12448 602.9312V752.64c0 16.2816 13.18912 29.4912 29.4912 29.4912h278.85568c9.37984 0 18.18624-4.44416 23.7568-12.00128l35.18464-47.7184h425.41056c16.30208 0 29.4912-13.2096 29.4912-29.4912v-89.98912H962.56a29.4912 29.4912 0 0 0 29.45024-31.10912l-29.34784-537.6a29.4912 29.4912 0 0 0-29.45024-27.87328H111.26784a29.4912 29.4912 0 0 0-29.45024 27.87328l-29.34784 537.6A29.4912 29.4912 0 0 0 81.92 602.9312h29.22496z m58.9824 0h704.22528v60.47744h-410.8288a29.4912 29.4912 0 0 0-23.73632 12.00128L404.60288 723.1488H170.10688v-120.2176zM539.56608 397.1072l-34.73408-59.55584-76.6976-131.56352-1.47456-41.92256 39.17824 25.47712 76.84096 131.80928 32.80896 56.25856-35.92192 19.51744z m20.64384 35.4304l35.92192-19.53792 14.86848 25.51808-17.14176 8.62208-19.456 9.76896-14.19264-24.3712z m-67.95264-274.69824l-76.26752-49.5616a20.48 20.48 0 0 0-31.6416 17.87904l3.03104 86.40512a20.48 20.48 0 0 0 2.7648 9.60512l79.29856 135.9872 79.27808 135.9872a20.48 20.48 0 0 0 26.89024 7.9872l36.6592-18.39104 36.59776-18.432a20.48 20.48 0 0 0 8.47872-28.61056l-79.27808-135.9872-79.29856-135.9872a20.48 20.48 0 0 0-6.51264-6.88128z"  horiz-adv-x="1024" />

    
    <glyph glyph-name="icon_manager_yanzhen" unicode="&#58896;" d="M660.13184 112.29184h135.168v76.47232h-135.168v-76.47232z m-11.59168 117.43232v9.0112c0 49.50016 31.8464 87.92064 79.17568 87.92064 47.34976 0 79.19616-38.42048 79.19616-87.90016v-9.03168h8.86784a20.48 20.48 0 0 0 20.48-20.48v-117.43232a20.48 20.48 0 0 0-20.48-20.48h-176.128a20.48 20.48 0 0 0-20.48 20.48v117.43232a20.48 20.48 0 0 0 20.48 20.48h8.88832z m40.96 0H765.952v9.0112c0 28.40576-15.38048 46.96064-38.23616 46.96064-22.8352 0-38.21568-18.55488-38.21568-46.94016v-9.03168zM698.22464 540.8768h-234.7008a29.4912 29.4912 0 0 0-29.4912 29.4912V805.0688H111.4112v-821.6576h449.86368a263.82336 263.82336 0 0 0-97.8944 205.35296c0 136.00768 102.74816 248.0128 234.84416 262.69696V540.8768z m-26.8288 58.9824l-178.3808 185.63072v-185.63072h178.3808z m85.8112-148.39808c132.096-14.66368 234.84416-126.68928 234.84416-262.69696 0-145.98144-118.35392-264.33536-264.33536-264.33536H81.92A29.4912 29.4912 0 0 0 52.4288-46.08V834.56c0 16.2816 13.2096 29.4912 29.4912 29.4912h404.86912c8.00768 0 15.68768-3.2768 21.25824-9.05216l240.9472-250.75712c5.26336-5.48864 8.21248-12.82048 8.21248-20.43904v-132.34176z m-29.4912-468.04992c113.41824 0 205.35296 91.9552 205.35296 205.35296 0 113.39776-91.9552 205.33248-205.35296 205.33248-113.39776 0-205.33248-91.93472-205.33248-205.33248 0-113.41824 91.93472-205.35296 205.33248-205.35296z"  horiz-adv-x="1024" />

    
    <glyph glyph-name="icon_manager_wallet" unicode="&#58897;" d="M808.63232 248.34048a29.2864 29.2864 0 1 0 0.04096 58.59328 29.2864 29.2864 0 0 0-0.04096-58.5728z m0 29.4912c-0.12288 0-0.2048-0.08192-0.2048-0.16384 0-0.1024 0.08192-0.18432 0.2048-0.18432s0.2048 0.08192 0.2048 0.18432c0 0.08192-0.08192 0.16384-0.2048 0.16384zM924.50816 394.58816v146.0224H111.4112V44.8512h813.09696v115.87584h-125.2352c-63.16032 0-113.8688 52.5312-113.8688 116.9408s50.70848 116.92032 113.8688 116.92032h125.2352z m0-58.9824h-125.2352c-30.1056 0-54.8864-25.66144-54.8864-57.9584 0-32.27648 24.7808-57.93792 54.8864-57.93792h125.2352v115.89632zM78.52032 589.94688c3.2768 3.76832 7.53664 6.77888 12.5952 8.54016l572.5184 200.15104c46.87872 16.34304 94.78144-19.61984 94.78144-69.59104v-129.45408h166.97344a58.22464 58.22464 0 0 0 58.10176-58.1632v-497.4592a58.2656 58.2656 0 0 0-58.12224-58.10176H110.53056A58.22464 58.22464 0 0 0 52.4288 44.032V541.42976c0 20.21376 10.38336 38.0928 26.09152 48.51712z m194.47808 9.6256h426.43456V729.06752c0 10.1376-8.6016 16.5888-16.36352 13.90592l-410.07104-143.36zM750.4896 465.92h58.14272a20.48 20.48 0 0 1 0 40.96h-58.14272a20.48 20.48 0 1 1 0-40.96zM576.08192 465.92h58.14272a20.48 20.48 0 1 1 0 40.96h-58.14272a20.48 20.48 0 1 1 0-40.96zM401.67424 465.92h58.14272a20.48 20.48 0 1 1 0 40.96h-58.1632a20.48 20.48 0 0 1 0-40.96zM227.26656 465.92h58.12224a20.48 20.48 0 0 1 0 40.96h-58.12224a20.48 20.48 0 1 1 0-40.96zM750.4896 76.8h58.14272a20.48 20.48 0 0 1 0 40.96h-58.14272a20.48 20.48 0 1 1 0-40.96zM576.08192 76.8h58.14272a20.48 20.48 0 1 1 0 40.96h-58.14272a20.48 20.48 0 1 1 0-40.96zM401.67424 76.8h58.14272a20.48 20.48 0 1 1 0 40.96h-58.1632a20.48 20.48 0 0 1 0-40.96zM227.26656 76.8h58.12224a20.48 20.48 0 0 1 0 40.96h-58.12224a20.48 20.48 0 1 1 0-40.96z"  horiz-adv-x="1024" />

    
    <glyph glyph-name="icon_manager_tikuan" unicode="&#58898;" d="M478.37184 619.25376a179.52768 179.52768 0 0 0-6.10304 46.53056c0 98.0992 78.848 177.78688 176.27136 177.78688 97.40288 0 176.25088-79.6672 176.25088-177.78688a178.3808 178.3808 0 0 0-27.648-95.6416c43.8272-21.95456 80.83456-49.5616 109.32224-83.2512 46.03904-54.41536 69.55008-126.27968 64.38912-196.8128-4.87424-66.33472-35.0208-130.2528-83.0464-177.09056a347597.27104 347597.27104 0 0 1-7.82336-158.47424 29.4912 29.4912 0 0 0-28.8768-28.03712 110793.19552 110793.19552 0 0 0-102.4-2.00704 29.4912 29.4912 0 0 0-28.34432 19.5584 63560.192 63560.192 0 0 0-21.54496 60.416 463.62624 463.62624 0 0 0-265.0112 10.3424c-0.67584-2.6624-1.4336-5.38624-2.21184-8.192-1.61792-5.79584-3.44064-11.81696-5.40672-18.00192a741.53984 741.53984 0 0 0-13.29152-38.05184 29.4912 29.4912 0 0 0-7.02464-10.56768c-14.09024-13.6192-89.9072-9.29792-122.96192 0.73728a29.4912 29.4912 0 0 0-20.84864 30.24896 202414.36672 202414.36672 0 0 1 7.9872 115.79392C187.392 116.67456 114.60608 172.2368 65.1264 243.73248c-16.83456 24.33024-27.11552 45.17888-31.3344 68.4032-5.61152 30.90432 1.90464 62.83264 22.85568 84.64384 13.63968 14.19264 27.2384 21.01248 53.78048 30.53568l2.62144 0.94208c4.58752 1.6384 6.9632 2.51904 9.48224 3.4816 20.60288 7.90528 36.4544 17.85856 46.96064 30.04416 10.60864 12.24704 15.4624 27.36128 13.08672 39.69024-0.94208 4.79232-2.6624 9.66656-7.168 20.62336-13.59872 33.11616-16.95744 49.13152-6.79936 72.74496 13.29152 30.84288 49.02912 45.52704 82.6368 40.0384 22.2208-3.62496 37.41696-11.71456 65.26976-30.78144 16.09728-10.99776 25.66144-16.62976 34.2016-19.456a540.32384 540.32384 0 0 0 127.67232 34.6112z m60.08832 5.36576a550.21568 550.21568 0 0 0 203.28448-30.98624 119.296 119.296 0 0 1 24.064 72.15104c0 65.65888-52.59264 118.80448-117.26848 118.80448-64.7168 0-117.28896-53.1456-117.28896-118.80448 0-14.27456 2.4576-28.16 7.20896-41.1648z m-168.46848-618.14784c1.76128 5.57056 3.3792 10.93632 4.8128 16.03584 4.21888 15.03232 6.5536 26.95168 6.49216 32.768a29.4912 29.4912 0 0 0 41.43104 27.17696c88.69888-39.26016 193.024-44.3392 285.2864-13.86496a29.4912 29.4912 0 0 0 37.00736-18.08384 111118.45888 111118.45888 0 0 0 23.7568-66.64192 226308.11648 226308.11648 0 0 0 53.6576 1.04448 487597.52704 487597.52704 0 0 1 7.0656 142.9504 29.4912 29.4912 0 0 0 9.87136 20.60288c41.984 37.2736 68.608 90.80832 72.64256 145.92 4.05504 55.11168-14.47936 111.75936-50.5856 154.4192-29.73696 35.18464-72.45824 63.16032-125.2352 83.94752-117.80096 46.34624-255.0784 44.11392-371.22048-6.06208a29.4912 29.4912 0 0 0-16.44544-2.048c-22.2208 3.64544-37.49888 11.75552-65.3312 30.78144-20.80768 14.2336-30.65856 19.47648-41.49248 21.25824-9.09312 1.47456-17.57184-2.00704-18.92352-5.16096-1.4336-3.31776-0.28672-8.84736 7.168-27.01312 5.98016-14.58176 8.58112-21.87264 10.50624-31.78496 6.06208-31.29344-4.56704-64.3072-26.35776-89.4976-17.65376-20.43904-41.49248-35.4304-70.49216-46.57152-3.072-1.16736-5.7344-2.12992-10.67008-3.8912l-2.60096-0.94208c-18.18624-6.5536-25.86624-10.38336-31.17056-15.89248-6.79936-7.08608-9.78944-19.82464-7.3728-33.23904 2.4576-13.37344 9.33888-27.36128 21.8112-45.40416 46.2848-66.8672 116.736-117.76 195.91168-141.45536a29.4912 29.4912 0 0 0 20.97152-30.3104 202415.2064 202415.2064 0 0 1-7.7824-112.51712 486.42048 486.42048 0 0 1 41.7792-2.9696c1.90464 5.40672 3.74784 10.93632 5.50912 16.44544zM296.28416 398.82752c-16.22016 0-29.36832-13.29152-29.36832-29.65504 0-16.384 13.14816-29.65504 29.36832-29.65504 16.1792 0 29.34784 13.27104 29.34784 29.65504 0 16.384-13.14816 29.65504-29.34784 29.65504z"  horiz-adv-x="1024" />

    
    <glyph glyph-name="icon_manager_changem" unicode="&#58899;" d="M514.31424 775.90528h4.3008a34.89792 34.89792 0 0 1-2.17088 0.1024c-0.47104 0-1.16736-0.02048-2.12992-0.1024z m11.38688 6.10304c4.11648 2.78528 8.84736 6.2464 15.23712 11.14112l18.2272 14.04928a404.39808 404.39808 0 0 0 31.39584 22.1184C648.72448 865.28 686.85824 877.01504 721.08032 850.944c33.87392-25.84576 29.40928-65.57696 4.5056-110.7968-6.16448-11.1616-12.6976-20.45952-23.57248-34.38592 1.59744 2.048-6.59456-8.3968-8.47872-10.8544-18.61632-24.1664-23.22432-36.6592-18.6368-56.4224 5.89824-25.31328 18.8416-45.6704 49.95072-83.23072l12.84096-15.5648c35.18464-43.08992 58.81856-77.76256 76.73856-115.87584 68.8128-146.49344 78.97088-289.792-1.51552-388.9152-62.64832-77.16864-169.86112-110.46912-296.46848-110.46912-126.5664 0-233.79968 33.30048-296.48896 110.44864-80.44544 99.1232-70.30784 242.40128-1.51552 388.87424 17.89952 38.15424 41.5744 72.86784 76.73856 115.9168 3.15392 3.85024 6.47168 7.84384 12.86144 15.54432 31.06816 37.56032 44.032 57.9584 49.93024 83.27168 4.608 19.74272 0 32.21504-18.6368 56.40192-1.86368 2.4576-10.05568 12.9024-8.45824 10.8544-10.8544 13.9264-17.408 23.20384-23.57248 34.38592-24.90368 45.1584-29.3888 84.93056 4.5056 110.77632 34.2016 26.13248 72.3968 14.41792 129.9456-21.21728a405.504 405.504 0 0 0 31.96928-22.48704c3.66592-2.78528 15.95392-12.288 18.2272-14.04928 6.41024-4.89472 11.12064-8.35584 15.23712-11.14112 3.8912-2.62144 6.98368-4.48512 9.25696-5.59104 2.29376 1.10592 5.40672 2.9696 9.25696 5.59104z m-9.91232-5.89824c-0.26624-0.12288-0.08192-0.1024 0.65536-0.1024 0.75776 0 0.9216 0 0.65536 0.1024l-0.65536 0.3072-0.65536-0.3072zM474.112 733.184c-5.2224 3.54304-10.73152 7.59808-17.96096 13.1072-2.4576 1.90464-14.70464 11.3664-18.16576 13.98784-10.8544 8.2944-19.08736 14.15168-26.8288 18.98496-36.6592 22.71232-57.7536 29.184-63.56992 24.73984-0.6144-0.45056-0.75776-0.90112-0.28672-4.99712 0.8192-7.43424 4.83328-18.0224 11.6736-30.4128 4.28032-7.74144 9.33888-14.92992 18.432-26.56256-1.80224 2.27328 6.63552-8.4992 8.704-11.18208 28.34432-36.80256 38.8096-65.1264 29.32736-105.75872-8.6016-36.94592-25.2928-63.1808-61.93152-107.47904-6.4512-7.76192-9.60512-11.5712-12.63616-15.27808-32.3584-39.60832-53.5552-70.67648-69.0176-103.6288-60.2112-128.2048-68.79232-249.40544-6.08256-326.656 49.0496-60.35456 140.12416-88.63744 250.69568-88.63744 110.592 0 201.66656 28.2624 250.6752 88.6784 62.73024 77.25056 54.14912 198.43072-6.08256 326.656-15.48288 32.91136-36.6592 63.95904-69.0176 103.6288l-12.61568 15.2576c-36.6592 44.31872-53.32992 70.53312-61.952 107.47904-9.46176 40.67328 1.024 68.95616 29.32736 105.7792l8.72448 11.1616c9.09312 11.65312 14.1312 18.82112 18.432 26.56256 6.81984 12.43136 10.83392 22.99904 11.6736 30.43328 0.45056 4.096 0.3072 4.52608-0.28672 4.97664-5.79584 4.4032-26.89024-2.048-63.0784-24.4736-8.192-5.12-16.44544-10.97728-27.29984-19.2512l-18.16576-14.00832c-7.22944-5.50912-12.73856-9.56416-17.96096-13.1072-16.05632-10.87488-28.38528-16.60928-42.37312-16.22016-13.96736-0.4096-26.29632 5.3248-42.35264 16.22016zM420.94592 110.77632c5.5296 0 8.27392-0.06144 24.9856-0.512 19.02592-0.53248 30.6176-0.67584 43.39712-0.4096 36.98688 0.7168 63.83616 4.99712 82.432 15.93344a108.56448 108.56448 0 0 1 53.32992 92.93824c0 50.91328-35.88096 92.9792-86.28224 104.18176-1.4336 0.32768-2.8672 0.6144-4.38272 0.9216a476.7744 476.7744 0 0 1-15.95392 2.90816c-26.48064 4.52608-36.7616 7.8848-46.8992 16.73216a67.15392 67.15392 0 0 0-22.79424 50.15552c0 27.136 18.80064 53.12512 45.60896 63.03744 10.0352 3.72736 29.22496 5.44768 56.07424 5.34528 9.33888-0.02048 18.24768-0.24576 32.256-0.67584 20.0704-0.63488 22.69184-0.7168 29.22496-0.7168a20.48 20.48 0 0 1 0 40.96c-5.87776 0-8.54016 0.08192-27.93472 0.69632-14.336 0.45056-23.59296 0.65536-33.3824 0.69632-31.66208 0.12288-54.33344-1.92512-70.4512-7.8848-42.61888-15.7696-72.35584-56.87296-72.35584-101.45792 0-30.84288 13.5168-60.57984 36.78208-80.95744 17.6128-15.44192 33.30048-20.56192 66.9696-26.3168a447.2832 447.2832 0 0 0 18.37056-3.42016c32.13312-7.14752 54.19008-33.01376 54.19008-64.2048 0-23.36768-12.82048-45.6704-33.13664-57.6512-10.6496-6.2464-32.21504-9.68704-62.48448-10.28096-11.96032-0.24576-23.04-0.1024-41.472 0.4096a847.33952 847.33952 0 0 1-26.09152 0.53248 20.48 20.48 0 0 1 0-40.96zM491.52 547.4304v-58.69568a20.48 20.48 0 0 1 40.96 0V547.4304a20.48 20.48 0 0 1-40.96 0zM491.52 107.1104v-58.69568a20.48 20.48 0 0 1 40.96 0V107.1104a20.48 20.48 0 0 1-40.96 0z"  horiz-adv-x="1024" />

    
    <glyph glyph-name="icon_manager_zengxin" unicode="&#58900;" d="M518.5536 399.44192a264.64256 264.64256 0 0 0 166.37952 58.53184c42.55744 0 82.75968-9.99424 118.43584-27.79136v182.51776c-68.096-41.39008-188.45696-65.39264-325.50912-65.39264-137.03168 0-257.39264 24.00256-325.48864 65.39264v-124.88704c0-14.848 28.61056-37.4784 83.82464-55.9104 62.91456-21.03296 149.23776-33.23904 241.664-33.23904 13.63968 0 27.2384 0.26624 40.71424 0.77824zM463.872 339.7632c-131.21536 1.57696-245.71904 25.33376-311.48032 65.31072v-124.88704c0-35.18464 114.0736-78.4384 266.4448-87.4496a265.95328 265.95328 0 0 0 45.03552 147.02592z m-38.76864-206.4384c-115.2 5.4272-213.66784 28.16-272.71168 64v-124.76416c0-14.848 28.61056-37.4784 83.82464-55.9104 62.91456-21.03296 149.23776-33.23904 241.664-33.23904 13.2096 0 26.3168 0.24576 39.23968 0.73728a266.8544 266.8544 0 0 0-92.01664 149.15584z m189.68576-199.51616a29.65504 29.65504 0 0 0-5.48864-1.24928 1034.97728 1034.97728 0 0 0-131.42016-8.13056c-212.21376 0-384.47104 57.56928-384.47104 148.13184V695.43936c0 90.56256 172.2368 148.13184 384.47104 148.13184 212.25472 0 384.49152-57.5488 384.49152-148.13184v-305.3568a266.40384 266.40384 0 0 0 88.73984-198.8608c0-147.33312-119.13216-266.79296-266.15808-266.79296-24.28928 0-47.8208 3.2768-70.16448 9.37984z m-136.9088 672.48128c92.44672 0 178.76992 12.20608 241.664 33.21856 55.23456 18.45248 83.84512 41.0624 83.84512 55.9104 0 14.86848-28.61056 37.4784-83.84512 55.93088-62.89408 21.03296-149.21728 33.23904-241.664 33.23904-92.42624 0-178.74944-12.20608-241.664-33.23904-55.21408-18.432-83.82464-41.0624-83.82464-55.9104 0-14.86848 28.61056-37.4784 83.82464-55.9104 62.91456-21.03296 149.23776-33.23904 241.664-33.23904zM684.93312-16.5888c114.40128 0 207.17568 93.02016 207.17568 207.79008 0 114.7904-92.7744 207.79008-207.17568 207.79008-114.3808 0-207.1552-92.99968-207.1552-207.79008 0-114.76992 92.7744-207.79008 207.1552-207.79008zM587.10016 194.1504c0-55.74656 38.54336-106.0864 97.83296-129.41312 59.31008 23.32672 97.85344 73.66656 97.85344 129.41312v82.28864c-38.13376 2.8672-75.59168 13.55776-97.83296 29.88032-22.24128-16.32256-59.6992-27.01312-97.85344-29.88032v-82.28864z m-40.96 0v101.9904a20.48 20.48 0 0 0 20.48 20.48c23.3472 0 50.688 4.64896 72.04864 12.0832 10.0352 3.4816 18.04288 7.3728 23.06048 11.03872 2.51904 1.8432 2.72384 2.1504 2.72384-0.22528 0 27.29984 40.96 27.29984 40.96 0 0 2.39616 0.2048 2.08896 2.74432 0.24576 5.0176-3.6864 13.02528-7.55712 23.06048-11.0592a233.472 233.472 0 0 1 72.04864-12.0832 20.48 20.48 0 0 0 20.48-20.48v-101.9904c0-76.24704-53.28896-143.0528-132.05504-170.5984a20.48 20.48 0 0 0-13.5168 0c-78.7456 27.5456-132.03456 94.35136-132.03456 170.5984z"  horiz-adv-x="1024" />

    
    <glyph glyph-name="icon_detail_jibing" unicode="&#58901;" d="M723.52 682.656l87.136-87.168 65.824 65.856-87.136 87.136-65.856-65.824zM682.624 723.52l65.856 65.792-22.272 22.272a28.896 28.896 0 0 0 40.832 40.832l213.344-213.344a28.896 28.896 0 0 0-40.832-40.832l-22.272 22.272-65.792-65.856 64.896-64.896a28.864 28.864 0 1 0-40.832-40.864l-22.272 22.272-192.896-192.928-213.312-213.312a28.864 28.864 0 0 0-17.824-8.352l-224.256-20.384-120.608-120.64a28.896 28.896 0 0 0-40.832 40.864l120.608 120.64 20.384 224.224a28.864 28.864 0 0 0 8.32 17.824L599.168 725.344l-22.24 22.24a28.864 28.864 0 1 0 40.864 40.832l64.896-64.896zM640 684.48l-86.72-86.72 54.272-54.208a14.432 14.432 0 1 0-20.448-20.416l-54.24 54.24-43.584-43.584 54.24-54.24a14.432 14.432 0 0 0-20.416-20.448l-54.24 54.272-43.584-43.584 54.24-54.272a14.432 14.432 0 1 0-20.416-20.416l-54.24 54.24-43.552-43.552 54.24-54.272a14.432 14.432 0 1 0-20.416-20.416l-54.272 54.272-43.552-43.584 54.24-54.24a14.432 14.432 0 1 0-20.416-20.416l-54.24 54.24-35.744-35.744-17.248-189.728 189.76 17.248 205.92 205.952L812.48 512 640 684.48z"  horiz-adv-x="1024" />

    
    <glyph glyph-name="icon_detail_hospital" unicode="&#58902;" d="M448 448v64a32 32 0 0 1-64 0v-64h-64a32 32 0 0 1 0-64h64v-64a32 32 0 0 1 64 0v64h64a32 32 0 0 1 0 64h-64zM416 704v16A48 48 0 0 0 464 768h32A48 48 0 0 0 544 720V704h104.48c47.776 0 88.256-35.136 95.2-83.648l21.92-211.52 156.736-44.8A96 96 0 0 0 992 271.68V128a64 64 0 0 0-64-64h-133.44a96.032 96.032 0 0 0-181.248 0.448c-1.728-0.32-3.52-0.448-5.312-0.448h-229.44a96.032 96.032 0 0 0-181.12 0H96a64 64 0 0 0-64 64V608a96 96 0 0 0 96 96h288z m32 0h64v16a16 16 0 0 1-16 16h-32a16 16 0 0 1-16-16V704z m165.312-576.448A96.032 96.032 0 0 0 794.528 128H928v143.712a32 32 0 0 1-23.232 30.784l-177.568 50.752a32 32 0 0 0-23.04 27.456l-24 231.808a32 32 0 0 1-31.68 27.488H128a32 32 0 0 1-32-32v-480h101.44a96.032 96.032 0 0 0 181.12 0H608c1.824 0 3.584-0.16 5.312-0.448zM288 64a32 32 0 1 1 0 64 32 32 0 0 1 0-64z m416 0a32 32 0 1 1 0 64 32 32 0 0 1 0-64z"  horiz-adv-x="1024" />

    
    <glyph glyph-name="icon_detail_faqi" unicode="&#58903;" d="M301.76 462.272A254.208 254.208 0 0 0 256 608a256 256 0 1 0 512 0c0-52.928-16.288-103.36-45.76-145.728 85.536-71.424 141.76-184.512 141.76-297.92V-64a32 32 0 0 0-32-32H192a32 32 0 0 0-32 32v228.352c0 113.408 56.224 226.496 141.76 297.92z m377.664-47.616A254.656 254.656 0 0 0 512 352a254.656 254.656 0 0 0-167.424 62.656C272.32 355.2 224 259.136 224 164.352V-32h576v196.352c0 94.784-48.32 190.88-120.576 250.304z m-310.4 65.6a191.232 191.232 0 0 1 285.984 0A190.848 190.848 0 0 1 704 608a192 192 0 1 1-384 0c0-47.712 17.6-92.64 48.992-127.744zM640 224v64a32 32 0 1 1-64 0v-64h-64a32 32 0 1 1 0-64h64v-64a32 32 0 1 1 64 0v64h64a32 32 0 1 1 0 64h-64z"  horiz-adv-x="1024" />

    
    <glyph glyph-name="icon_detail_patient" unicode="&#58904;" d="M413.376 544c-87.552 0-158.528 71.648-158.528 160s70.976 160 158.528 160c87.584 0 158.56-71.648 158.56-160s-70.976-160-158.56-160z m31.712-32h95.136c17.504 0 31.712-14.336 31.712-32s-14.208-32-31.68-32h-95.168v-128h253.696c13.248 0 25.088-8.32 29.696-20.832l91.712-248.576 66.048 22.208a31.648 31.648 0 0 0 40.128-20.224 32.064 32.064 0 0 0-20.064-40.48l-95.136-32a31.648 31.648 0 0 0-39.744 19.2l-72.672 197.056V192c0-159.072-127.744-288-285.376-288C255.744-96 128 32.928 128 192c0 148.256 110.976 270.336 253.664 286.24v86.624c0 17.696 14.208 32 31.712 32 17.536 0 31.712-14.304 31.712-32V512z m-63.424-98.24c-107.552-15.552-190.24-108.896-190.24-221.76 0-123.712 99.36-224 221.952-224 122.624 0 221.984 100.288 221.984 224 0 21.728-3.2 43.136-9.408 64h-212.576a31.84 31.84 0 0 0-31.68 32v125.76zM413.376 608c52.544 0 95.136 42.976 95.136 96s-42.56 96-95.136 96c-52.512 0-95.104-42.976-95.104-96s42.56-96 95.104-96z m-136.64-323.04a15.776 15.776 0 0 0-22.016-4.288 16.096 16.096 0 0 0-4.256 22.208c7.04 10.528 15.104 20.352 24 29.312a15.744 15.744 0 0 0 22.4 0 16.096 16.096 0 0 0 0-22.624 167.36 167.36 0 0 1-20.16-24.64z m253.152-210.56a15.744 15.744 0 0 0 22.432 0 16.096 16.096 0 0 0 0-22.592 198.24 198.24 0 0 0-62.464-42.496 195.776 195.776 0 0 0-76.48-15.616 194.688 194.688 0 0 0-138.912 58.112 199.264 199.264 0 0 0-42.112 63.04 200.224 200.224 0 0 0-6.08 137.856 15.84 15.84 0 0 0 19.936 10.368 16 16 0 0 0 10.24-20.096 167.68 167.68 0 0 1-4.512-84.48 168 168 0 0 1 24.8-59.456 167.36 167.36 0 0 1 44.512-44.928 162.24 162.24 0 0 1 92.16-28.416 163.232 163.232 0 0 1 116.48 48.736z"  horiz-adv-x="1024" />

    
    <glyph glyph-name="icon_up_detail_yello" unicode="&#58905;" d="M790.272 216.9344h103.0144c19.2512 0 37.888 7.3728 52.3776 20.7872 33.024 30.5152 36.352 83.5072 7.4752 118.3744L571.8528 816.128a81.8688 81.8688 0 0 1-7.5264 7.8848 76.5952 76.5952 0 0 1-112.128-7.8848l-381.3376-460.032A86.6816 86.6816 0 0 1 51.2 300.8512c0-46.336 35.584-83.9168 79.5136-83.9168h103.0144v-209.8176c0-46.336 35.6352-83.9168 79.5136-83.9168h397.5168c43.8784 0 79.5136 37.5808 79.5136 83.968v209.7664z"  horiz-adv-x="1024" />

    
    <glyph glyph-name="icon_detail_comment" unicode="&#58906;" d="M997.052632-23.120842a51.738947 51.738947 0 0 0-71.060211-47.993263l-221.480421 89.168842a51.738947 51.738947 0 0 1-19.321263 3.745684H182.164211A155.216842 155.216842 0 0 0 26.947368 177.017263V790.366316C26.947368 818.930526 50.122105 842.105263 78.686316 842.105263h866.627368C973.877895 842.105263 997.052632 818.930526 997.052632 790.366316v-813.487158zM282.974316 479.070316a67.368421 67.368421 0 1 1 0-134.736842 67.368421 67.368421 0 1 1 0 134.736842z m228.998737 0a67.368421 67.368421 0 1 1 0-134.736842 67.368421 67.368421 0 0 1 0 134.736842z m228.971789 0a67.368421 67.368421 0 1 1 0-134.736842 67.368421 67.368421 0 0 1 0 134.736842z"  horiz-adv-x="1024" />

    
    <glyph glyph-name="icon_detail_collect" unicode="&#58907;" d="M486.938947 56.400842l-245.894736-128a26.947368 26.947368 0 0 0-38.992843 28.510316l46.780632 270.012631a53.894737 53.894737 0 0 1-15.683368 47.966316l-197.955369 191.056842a26.947368 26.947368 0 0 0 14.874948 46.08l274.270315 39.450948a53.894737 53.894737 0 0 1 40.55579 29.291789l122.799158 246.406737a26.947368 26.947368 0 0 0 48.235789 0l122.799158-246.406737a53.894737 53.894737 0 0 1 40.55579-29.291789l274.270315-39.450948a26.947368 26.947368 0 0 0 14.901895-46.08l-197.982316-191.056842a53.894737 53.894737 0 0 1-15.683368-47.966316l46.780631-270.012631a26.947368 26.947368 0 0 0-38.992842-28.510316l-245.867789 128a53.894737 53.894737 0 0 1-49.77179 0z"  horiz-adv-x="1024" />

    
    <glyph glyph-name="icon_detail_share" unicode="&#58908;" d="M648.084211 79.845053l-331.668211 191.488a134.736842 134.736842 0 1 0 8.084211 219.621052l325.281684 187.823158a134.736842 134.736842 0 1 0 40.097684-70.197895l-318.787368-184.077473c4.015158-12.8 6.170947-26.408421 6.170947-40.501895 0-17.327158-3.260632-33.899789-9.242947-49.125053l315.257263-182.002526a134.736842 134.736842 0 1 0-35.166316-73.027368z"  horiz-adv-x="1024" />

    
    <glyph glyph-name="zhifubao" unicode="&#58909;" d="M390.38976 251.20768c-61.29664-37.02784-70.38976 20.76672-70.38976 20.76672l-76.8 194.1504c-29.57312 92.2624 25.55904 41.59488 25.55904 41.59488s47.3088-38.76864 83.23072-62.38208c35.88096-23.63392 76.8-6.94272 76.8-6.94272l502.1696 251.0848C838.28736 814.34624 685.24032 896 511.97952 896 229.21216 896 0 678.7072 0 410.64448c0-154.2144 75.89888-291.4304 194.10944-380.35456l-21.2992-132.75136s-10.42432-38.74816 25.6-20.7872c24.55552 12.24704 87.12192 56.19712 124.37504 82.90304A535.22432 535.22432 0 0 1 512-74.71104c282.74688 0 512 217.2928 512 485.35552a462.6432 462.6432 0 0 1-53.53472 216.064c-160.01024-104.28416-532.13184-346.60352-580.07552-375.5008z"  horiz-adv-x="1024" />

    
    <glyph glyph-name="weixin" unicode="&#58910;" d="M230.4 319.46752c-12.0832-9.728-25.04704-23.92064-28.79488-41.984-5.12-24.65792-1.06496-55.54176 22.7328-79.74912 28.81536-29.36832 72.62208-37.39648 91.5456-38.78912 51.4048-3.72736 106.1888 21.77024 147.47648 50.83136 16.1792 11.42784 43.90912 34.36544 70.38976 69.7344-59.37152 30.63808-133.46816 64.55296-212.70528 61.2352-40.46848-1.69984-69.44768-10.09664-90.64448-21.2992z m752.86528-135.5776A509.44 509.44 0 0 1 1024 384C1024 666.3168 794.33728 896 512 896S0 666.3168 0 384c0-282.33728 229.66272-512 512-512 170.3936 0 321.49504 83.72224 414.6176 212.13184a56825.1392 56825.1392 0 0 1-322.3552 159.29344c-42.61888-48.57856-105.63584-97.30048-176.82432-118.49728-44.72832-13.312-85.05344-18.37056-127.20128-9.74848-41.73824 8.56064-72.47872 28.09856-90.39872 47.69792-9.13408 9.97376-19.61984 22.69184-27.19744 37.80608 0.7168-1.90464 1.18784-3.05152 1.18784-3.05152s-4.34176 7.51616-7.68 19.49696a86.17984 86.17984 0 0 0-3.35872 18.16576 93.83936 93.83936 0 0 0-0.2048 13.02528 94.24896 94.24896 0 0 0 1.67936 24.064c4.17792 20.25472 12.82048 43.8272 35.16416 65.69984 49.07008 48.04608 114.7904 50.62656 148.82816 50.42176 50.42176-0.28672 138.0352-22.34368 211.80416-48.45568 20.43904 43.52 33.54624 90.07104 42.00448 121.11872H305.31584v33.1776h157.51168v66.31424h-190.6688v33.1776h190.6688v66.31424c0 9.09312 1.80224 16.5888 16.5888 16.5888h74.60864v-82.90304h207.29856v-33.1776H554.02496v-66.33472h165.82656s-16.65024-92.83584-68.73088-184.32c115.56864-41.2672 278.13888-104.8576 332.14464-126.09536z"  horiz-adv-x="1024" />

    
    <glyph glyph-name="icon_selected" unicode="&#58911;" d="M440.462222 259.271111L259.441778 440.32 199.111111 379.960889l211.2-211.2 30.151111-30.151111 402.261334 402.261333-60.302223 60.330667-341.959111-341.902222zM512-128C229.233778-128 0 101.233778 0 384S229.233778 896 512 896s512-229.233778 512-512-229.233778-512-512-512z"  horiz-adv-x="1024" />

    
    <glyph glyph-name="icon_personal_zhangb" unicode="&#58912;" d="M439.95136 694.59968H172.38016a12.34944 12.34944 0 0 1-12.34944-12.34944v-699.35104c0-6.81984 5.5296-12.34944 12.34944-12.34944h576.3072c6.84032 0 12.36992 5.5296 12.36992 12.34944V682.25024a12.34944 12.34944 0 0 1-12.34944 12.34944h-61.7472v-282.91072a41.1648 41.1648 0 0 0-63.65184-34.46784l-59.84256 38.99392-59.86304-38.99392a41.1648 41.1648 0 0 0-63.65184 34.46784V694.59968z m377.73312-723.5584a53.49376 53.49376 0 0 1 46.2848 53.00224V743.95648a53.49376 53.49376 0 0 1-53.51424 53.49376H213.54496a53.51424 53.51424 0 0 1-53.0432-46.26432c3.87072 0.65536 7.84384 1.024 11.8784 1.024h576.3072a69.95968 69.95968 0 0 0 70.00064-69.95968v-699.35104c0-4.05504-0.34816-7.9872-1.00352-11.8784zM213.54496 855.04h596.91008A111.104 111.104 0 0 0 921.6 743.95648v-719.91296A111.104 111.104 0 0 0 810.45504-87.04H172.38016A69.95968 69.95968 0 0 0 102.4-17.1008V743.95648A111.104 111.104 0 0 0 213.54496 855.04z m267.5712-152.20736v-291.14368l59.86304 38.99392a41.18528 41.18528 0 0 0 44.9536 0l59.86304-38.99392V702.83264h-164.6592z"  horiz-adv-x="1024" />

    
    <glyph glyph-name="icon_personal_settin" unicode="&#58913;" d="M479.72352 785.408l-33.42336-114.44224-15.21664-4.34176c-21.504-6.144-42.1888-14.7456-61.66528-25.57952l-13.84448-7.68-104.59136 57.28256-45.62944-45.62944 57.28256-104.59136-7.68-13.84448c-10.8544-19.47648-19.43552-40.1408-25.57952-61.66528l-4.34176-15.21664L110.592 416.27648v-64.55296l114.44224-33.42336 4.34176-15.21664c6.144-21.504 14.7456-42.1888 25.57952-61.66528l7.68-13.84448-57.28256-104.59136 45.62944-45.62944 104.59136 57.28256 13.84448-7.68c19.47648-10.8544 40.1408-19.43552 61.66528-25.57952l15.21664-4.34176 33.42336-114.44224h64.55296l33.42336 114.44224 15.21664 4.34176c21.504 6.144 42.1888 14.7456 61.66528 25.57952l13.84448 7.68 104.59136-57.28256 45.62944 45.62944-57.28256 104.59136 7.68 13.84448c10.8544 19.47648 19.43552 40.1408 25.57952 61.66528l4.34176 15.21664 114.44224 33.42336v64.55296l-114.44224 33.42336-4.34176 15.21664c-6.144 21.504-14.7456 42.1888-25.57952 61.66528l-7.68 13.84448 57.28256 104.59136-45.62944 45.62944-102.76864-56.29952-93.12256 38.6048L544.27648 785.408h-64.55296z m-79.72864-68.4032l25.06752 85.77024A55.54176 55.54176 0 0 0 478.4128 842.752h67.21536c24.6784 0 46.40768-16.2816 53.32992-39.97696l25.51808-87.36768 42.35264-17.55136 79.85152 43.74528a55.54176 55.54176 0 0 0 65.9456-9.44128L860.16 684.62592a55.54176 55.54176 0 0 0 9.4208-65.96608l-42.94656-78.41792c7.12704-14.29504 13.25056-29.0816 18.35008-44.2368l85.8112-25.06752A55.54176 55.54176 0 0 0 970.752 417.5872v-67.21536a55.54176 55.54176 0 0 0-39.97696-53.32992l-85.79072-25.06752a349.184 349.184 0 0 0-18.35008-44.2368l42.96704-78.41792a55.54176 55.54176 0 0 0-9.44128-65.9456L812.62592 35.84a55.54176 55.54176 0 0 0-65.96608-9.4208l-78.41792 42.94656a349.184 349.184 0 0 0-44.2368-18.35008l-25.06752-85.8112A55.54176 55.54176 0 0 0 545.5872-74.752H478.4128a55.54176 55.54176 0 0 0-53.32992 39.97696l-25.06752 85.79072a349.184 349.184 0 0 0-44.2368 18.35008l-78.41792-42.96704a55.54176 55.54176 0 0 0-65.9456 9.44128L163.84 83.37408a55.54176 55.54176 0 0 0-9.4208 65.96608l42.94656 78.41792a349.184 349.184 0 0 0-18.35008 44.2368l-85.8112 25.06752A55.54176 55.54176 0 0 0 53.248 350.4128V417.5872c0 24.6784 16.2816 46.40768 39.97696 53.32992l85.79072 25.06752c5.09952 15.1552 11.22304 29.94176 18.35008 44.2368l-42.96704 78.41792A55.54176 55.54176 0 0 0 163.84 684.60544L211.37408 732.16a55.54176 55.54176 0 0 0 65.96608 9.4208l78.41792-42.94656a349.184 349.184 0 0 0 44.2368 18.35008zM512 240.64a143.36 143.36 0 1 0 0 286.72 143.36 143.36 0 0 0 0-286.72z m0 40.96a102.4 102.4 0 1 1 0 204.8 102.4 102.4 0 0 1 0-204.8z"  horiz-adv-x="1024" />

    
    <glyph glyph-name="icon_personal_help1" unicode="&#58915;" d="M511.3856 178.52416l-85.0944 41.22624a28.672 28.672 0 1 1-25.00608-51.6096l102.68672-49.7664a110.592 110.592 0 0 1 95.5392-0.43008c114.40128 54.12864 199.68 84.8896 254.48448 92.30336 43.4176 5.87776 55.11168-0.45056 55.11168-18.92352 0-37.21216-93.184-98.36544-278.60992-168.18176a176.128 176.128 0 0 0-101.56032-6.81984L307.87584 67.1744a602.112 602.112 0 0 1-134.98368 15.33952H102.4a28.672 28.672 0 1 1 0-57.344h70.49216a544.768 544.768 0 0 0 122.12224-13.86496L516.096-39.54688a233.472 233.472 0 0 1 134.61504 9.0112c210.82112 79.40096 315.76064 148.25472 315.76064 221.85984 0 60.45696-46.6944 85.68832-120.13568 75.75552-50.74944-6.88128-120.13568-29.81888-208.97792-68.8128a105.84064 105.84064 0 0 1-51.6096 115.712l-160.13312 89.4976a233.472 233.472 0 0 1-225.0752 1.49504L88.71936 344.4736a28.672 28.672 0 0 1 27.32032-50.42176l111.75936 60.5184a176.128 176.128 0 0 0 169.79968-1.1264l160.1536-89.4976a48.4352 48.4352 0 0 0-43.29472-86.56896c-1.024 0.45056-2.048 0.8192-3.09248 1.16736zM563.2 424.96a92.16 92.16 0 1 0 0 184.32 92.16 92.16 0 0 0 0-184.32z m0 40.96a51.2 51.2 0 1 1 0 102.4 51.2 51.2 0 0 1 0-102.4zM788.48 609.28a92.16 92.16 0 1 0 0 184.32 92.16 92.16 0 0 0 0-184.32z m0 40.96a51.2 51.2 0 1 1 0 102.4 51.2 51.2 0 0 1 0-102.4zM788.48 322.56a92.16 92.16 0 1 0 0 184.32 92.16 92.16 0 0 0 0-184.32z m0 40.96a51.2 51.2 0 1 1 0 102.4 51.2 51.2 0 0 1 0-102.4z"  horiz-adv-x="1024" />

    
    <glyph glyph-name="icon_back" unicode="&#58916;" d="M222.378667 384L608.529067 770.184533 512 866.7136 29.2864 384 512-98.7136l96.529067 96.529067z"  horiz-adv-x="1024" />

    
    <glyph glyph-name="icon_login_phone" unicode="&#58917;" d="M770.048 261.12V764.928H253.952V261.12h516.096z m0-57.344H253.952v-200.704h516.096v200.704zM245.76 822.272h532.48c27.136 0 49.152-22.016 49.152-49.152v-778.24c0-27.136-22.016-49.152-49.152-49.152H245.76a49.152 49.152 0 0 0-49.152 49.152V773.12c0 27.136 22.016 49.152 49.152 49.152zM512 35.84a61.44 61.44 0 1 0 0 122.88 61.44 61.44 0 0 0 0-122.88z m0 40.96a20.48 20.48 0 1 1 0 40.96 20.48 20.48 0 0 1 0-40.96z"  horiz-adv-x="1024" />

    
    <glyph glyph-name="icon_manager_apply" unicode="&#58918;" d="M110.592 785.408v-311.296h311.296V785.408H110.592zM102.4 842.752h327.68A49.152 49.152 0 0 0 479.232 793.6v-327.68a49.152 49.152 0 0 0-49.152-49.152H102.4A49.152 49.152 0 0 0 53.248 465.92V793.6A49.152 49.152 0 0 0 102.4 842.752zM602.112 785.408v-311.296h311.296V785.408H602.112zM593.92 842.752h327.68A49.152 49.152 0 0 0 970.752 793.6v-327.68a49.152 49.152 0 0 0-49.152-49.152H593.92a49.152 49.152 0 0 0-49.152 49.152V793.6A49.152 49.152 0 0 0 593.92 842.752zM602.112-17.408h311.296V293.888H602.112v-311.296z m-8.192 368.64h327.68a49.152 49.152 0 0 0 49.152-49.152v-327.68a49.152 49.152 0 0 0-49.152-49.152H593.92a49.152 49.152 0 0 0-49.152 49.152V302.08a49.152 49.152 0 0 0 49.152 49.152zM110.592 293.888v-311.296h311.296V293.888H110.592zM102.4 351.232h327.68a49.152 49.152 0 0 0 49.152-49.152v-327.68a49.152 49.152 0 0 0-49.152-49.152H102.4A49.152 49.152 0 0 0 53.248-25.6V302.08A49.152 49.152 0 0 0 102.4 351.232z"  horiz-adv-x="1024" />

    
    <glyph glyph-name="icon_login_country" unicode="&#58930;" d="M483.328 8.2432c-182.528 13.7216-328.7552 157.4912-346.368 338.8928H110.592a28.672 28.672 0 0 0 0 57.344h25.1136c10.1376 189.0816 159.6416 341.1456 347.6224 355.2768V785.408a28.672 28.672 0 0 0 57.344 0v-25.6512c187.9808-14.1312 337.4848-166.1952 347.6224-355.2768h25.1136a28.672 28.672 0 0 0 0-57.344h-26.368c-17.6128-181.4016-163.84-325.1712-346.368-338.8928v-25.6512a28.672 28.672 0 0 0-57.344 0v25.6512z m0 57.5488v64.256a28.672 28.672 0 0 0 57.344 0v-64.256c150.8352 13.4144 271.5136 131.6352 288.7168 281.344H765.952a28.672 28.672 0 0 0 0 57.344h64.896c-9.984 157.3888-133.888 283.8272-290.176 297.728v-64.256a28.672 28.672 0 0 0-57.344 0V702.208c-156.288-13.9008-280.2176-140.3392-290.176-297.728h64.896a28.672 28.672 0 0 0 0-57.344H194.6112c17.2032-149.7088 137.8816-267.9296 288.7168-281.344zM512 384m-40.96 0a40.96 40.96 0 1 1 81.92 0 40.96 40.96 0 1 1-81.92 0Z"  horiz-adv-x="1024" />

    
    <glyph glyph-name="icon_login_yanzhengm" unicode="&#58919;" d="M511.9488-25.6C395.6224-25.6 179.2 158.0032 179.2 331.6224V663.0656c0 8.0384 6.3488 14.5408 14.2336 14.6944l18.8416 0.3328c0.7168 0 74.624 1.5872 150.784 33.536 78.1824 32.7168 128.5632 70.3488 129.1008 70.7328l11.136 8.3456a14.4384 14.4384 0 0 0 17.152 0.0512l11.3152-8.3968c0.512-0.384 50.944-38.016 129.0752-70.7328 76.2368-31.9488 150.1184-33.536 150.8864-33.536l18.688-0.3328a14.592 14.592 0 0 0 14.2336-14.6944L844.8 331.6224C844.8 158.0032 628.352-25.6 511.9488-25.6z m281.472 650.0608c-28.5952 2.304-88.7552 10.112-151.296 36.3264-63.872 26.7776-110.8224 56.8064-130.176 70.0672a751.744 751.744 0 0 0-130.1504-70.0672C319.3856 634.624 259.3792 626.816 230.4 624.4608v-292.8384c0-136.1664 188.5184-302.6176 281.5488-302.6176 36.0448 0 106.2912 30.976 175.36 99.0464 66.56 65.536 106.2912 141.6448 106.2912 203.5712l-0.1792 292.864zM503.9104 259.2768c-5.376-5.12-12.7232-7.9872-20.4032-7.9616-7.424 0-14.8224 2.6624-20.48 7.9616l-86.8352 81.2544a25.9328 25.9328 0 0 0 0 38.3232 30.2848 30.2848 0 0 0 40.9344 0l66.3808-62.1056 167.6032 156.9792a30.208 30.208 0 0 0 40.9088 0 25.8048 25.8048 0 0 0 0-38.3232l-188.1088-176.128z"  horiz-adv-x="1024" />

    
    <glyph glyph-name="icon_more" unicode="&#58920;" d="M572.150519 35.384889l53.627259-53.665185L1028.058074 384 625.777778 786.280296l-53.627259-53.665185 348.615111-348.615111z"  horiz-adv-x="1028" />

    
    <glyph glyph-name="icon_login_male" unicode="&#58921;" d="M599.0656 515.1744l153.9584 153.9584H540.672a28.672 28.672 0 0 0 0 57.344h281.6c15.8464 0 28.672-12.8256 28.672-28.672v-281.6a28.672 28.672 0 0 0-57.344 0v212.3776l-153.9584-153.9584c101.4272-121.8816 94.976-303.2576-19.3536-417.5872-121.1648-121.1648-317.6192-121.1648-438.784 0-121.1648 121.1648-121.1648 317.6192 0 438.784 114.3296 114.3296 295.68 120.7808 417.5872 19.3536zM222.0288 97.5872c98.7648-98.7648 258.9184-98.7648 357.6832 0 98.7904 98.7648 98.7904 258.9184 0 357.6832-98.7648 98.7904-258.9184 98.7904-357.6832 0-98.7904-98.7648-98.7904-258.9184 0-357.6832z"  horiz-adv-x="1024" />

    
    <glyph glyph-name="icon_login_female" unicode="&#58922;" d="M304.896 187.7248l65.92 65.8944 0.9216 0.896c-101.4528 121.8816-94.976 303.2832 19.3536 417.6128 121.1648 121.1648 317.6192 121.1648 438.784 0 121.1648-121.1648 121.1648-317.6192 0-438.784-114.3552-114.3552-295.7312-120.7808-417.6128-19.328a29.1584 29.1584 0 0 0-0.9216-0.9472l-65.8688-65.8944 68.0448-68.0704a28.672 28.672 0 0 0-40.5504-40.5504l-68.0448 68.0704-70.2464-70.2464a28.672 28.672 0 0 0-40.5504 40.5504l70.2464 70.2464-68.0704 68.0704a28.672 28.672 0 0 0 40.5504 40.5504l68.0704-68.096zM789.3504 631.552c-98.7904 98.7648-258.9184 98.7648-357.7088 0-98.7648-98.7648-98.7648-258.9184 0-357.6832 98.7904-98.7904 258.9184-98.7904 357.7088 0 98.7648 98.7648 98.7648 258.9184 0 357.6832z"  horiz-adv-x="1024" />

    
    <glyph glyph-name="icon_personal_bowser" unicode="&#58923;" d="M118.784 523.264V35.84H921.6V523.264H118.784z m0 57.344H921.6V715.776H118.784v-135.168zM110.592 773.12h819.2a49.152 49.152 0 0 0 49.152-49.152v-696.32a49.152 49.152 0 0 0-49.152-49.152h-819.2A49.152 49.152 0 0 0 61.44 27.648v696.32A49.152 49.152 0 0 0 110.592 773.12zM342.15936 362.496a20.48 20.48 0 0 1-28.95872 28.95872l-115.85536-115.85536a20.48 20.48 0 0 1 0-28.95872l115.85536-115.85536a20.48 20.48 0 0 1 28.95872 28.95872L240.78336 261.12l101.376 101.376zM681.84064 362.496a20.48 20.48 0 0 0 28.95872 28.95872l115.85536-115.85536a20.48 20.48 0 0 0 0-28.95872l-115.85536-115.85536a20.48 20.48 0 0 0-28.95872 28.95872l101.376 101.376-101.376 101.376zM194.56 640m-30.72 0a30.72 30.72 0 1 1 61.44 0 30.72 30.72 0 1 1-61.44 0ZM317.44 640m-30.72 0a30.72 30.72 0 1 1 61.44 0 30.72 30.72 0 1 1-61.44 0ZM440.32 640m-30.72 0a30.72 30.72 0 1 1 61.44 0 30.72 30.72 0 1 1-61.44 0ZM409.593838 175.266052l188.26011 188.26011 28.963094-28.963094-188.26011-188.26011-28.963094 28.963094Z"  horiz-adv-x="1024" />

    
    <glyph glyph-name="icon_personal_fankui1" unicode="&#58924;" d="M799.60064 581.69344l60.35456 104.52992-163.18464 94.208-60.33408-104.52992 163.16416-94.208z m-20.48-35.47136l-163.16416 94.208-241.74592-418.69312 36.37248-118.43584 127.09888 24.71936 241.4592 418.2016z m-60.76416 287.9488l177.3568-102.4a49.152 49.152 0 0 0 18.00192-67.13344l-328.25344-568.5248a49.152 49.152 0 0 0-33.1776-23.67488l-137.97376-26.8288a49.152 49.152 0 0 0-56.36096 33.792l-39.58784 128.90112a49.152 49.152 0 0 0 4.4032 39.0144L651.20256 816.18944a49.152 49.152 0 0 0 67.15392 18.00192zM172.032 1.1264h679.936a28.672 28.672 0 1 0 0-57.344H172.032a28.672 28.672 0 0 0 0 57.344z"  horiz-adv-x="1024" />

    
    <glyph glyph-name="icon_personal_histor" unicode="&#58926;" d="M317.6448 711.68A378.9824 378.9824 0 0 0 512 764.928c210.37056 0 380.928-170.55744 380.928-380.928 0-210.37056-170.55744-380.928-380.928-380.928-210.37056 0-380.928 170.55744-380.928 380.928 0 29.34784 3.31776 58.24512 9.8304 86.3232a28.672 28.672 0 0 1-55.88992 12.92288A439.5008 439.5008 0 0 1 73.728 384c0-242.05312 196.21888-438.272 438.272-438.272 242.05312 0 438.272 196.21888 438.272 438.272 0 242.05312-196.21888 438.272-438.272 438.272a436.3264 436.3264 0 0 1-225.28-62.2592V793.6a20.48 20.48 0 0 1-40.96 0v-102.4a20.41856 20.41856 0 0 1 20.48-20.48h102.4a20.48 20.48 0 0 1 0 40.96h-50.9952zM512 363.52V568.32a20.48 20.48 0 0 1-40.96 0v-225.28a20.41856 20.41856 0 0 1 20.48-20.48h163.84a20.48 20.48 0 0 1 0 40.96h-143.36z"  horiz-adv-x="1024" />

    
    <glyph glyph-name="icon_personal_focus" unicode="&#58927;" d="M698.22464 540.8768h-234.7008a29.4912 29.4912 0 0 0-29.4912 29.4912V805.0688H111.4112v-821.6576h449.86368a263.82336 263.82336 0 0 0-97.8944 205.35296c0 136.00768 102.74816 248.0128 234.84416 262.69696V540.8768z m-26.8288 58.9824l-178.3808 185.63072v-185.63072h178.3808z m85.8112-148.39808c132.096-14.66368 234.84416-126.68928 234.84416-262.69696 0-145.98144-118.35392-264.33536-264.33536-264.33536H81.92A29.4912 29.4912 0 0 0 52.4288-46.08V834.56c0 16.2816 13.2096 29.4912 29.4912 29.4912h404.86912c8.00768 0 15.68768-3.2768 21.25824-9.05216l240.9472-250.75712c5.26336-5.48864 8.21248-12.82048 8.21248-20.43904v-132.34176z m-29.4912-468.04992c113.41824 0 205.35296 91.9552 205.35296 205.35296 0 113.39776-91.9552 205.33248-205.35296 205.33248-113.39776 0-205.33248-91.93472-205.33248-205.33248 0-113.41824 91.93472-205.35296 205.33248-205.35296zM726.38464 135.7824l47.7184-21.83168-6.0416 52.1216 35.51232 38.62528-51.42528 10.38336-25.76384 45.71136-25.76384-45.71136-51.42528-10.38336 35.49184-38.62528-6.02112-52.1216 47.7184 21.83168z m-47.18592-66.64192a30.72 30.72 0 0 0-43.29472 31.45728l5.9392 51.54816-35.10272 38.1952a30.72 30.72 0 0 0 16.52736 50.91328l50.87232 10.26048 25.47712 45.19936a30.72 30.72 0 0 0 53.53472 0l25.47712-45.19936 50.87232-10.26048a30.72 30.72 0 0 0 16.52736-50.91328l-35.1232-38.1952 5.95968-51.54816a30.72 30.72 0 0 0-43.29472-31.45728l-47.18592 21.58592-47.18592-21.58592z"  horiz-adv-x="1024" />

    
    <glyph glyph-name="icon_personal_raise" unicode="&#58928;" d="M469.34016 97.28H110.592a28.672 28.672 0 0 0-28.63104 27.07456l-28.672 516.096A28.672 28.672 0 0 0 81.92 670.72h28.672V814.08a28.672 28.672 0 0 0 28.672 28.672h272.384a28.672 28.672 0 0 0 22.9376-11.4688L468.992 785.408h415.744a28.672 28.672 0 0 0 28.672-28.672V670.72H942.08a28.672 28.672 0 0 0 28.63104-30.26944l-19.8656-357.5808c12.82048-30.63808 19.90656-64.28672 19.90656-99.57376 0-142.52032-115.52768-258.048-258.048-258.048-112.35328 0-207.93344 71.80288-243.36384 172.032z m-13.1072 57.344c-1.024 9.4208-1.57696 18.98496-1.57696 28.672 0 142.52032 115.52768 258.048 258.048 258.048 72.64256 0 138.26048-30.0032 185.15968-78.31552l13.9264 250.34752H112.2304l25.47712-458.752h318.52544zM167.936 670.72h688.128V728.064H454.656a28.672 28.672 0 0 0-22.9376 11.4688L397.312 785.408H167.936V670.72z m544.768-688.128c110.83776 0 200.704 89.86624 200.704 200.704 0 110.83776-89.86624 200.704-200.704 200.704-110.83776 0-200.704-89.86624-200.704-200.704 0-110.83776 89.86624-200.704 200.704-200.704zM692.224 203.776h-94.208a20.48 20.48 0 0 1 0-40.96h94.208v-94.208a20.48 20.48 0 0 1 40.96 0v94.208h94.208a20.48 20.48 0 0 1 0 40.96h-94.208v94.208a20.48 20.48 0 0 1-40.96 0v-94.208z"  horiz-adv-x="1024" />

    
    <glyph glyph-name="icon_focus_del" unicode="&#58931;" d="M204.8 588.8h614.4v-491.52a122.88 122.88 0 0 0-122.88-122.88H327.68a122.88 122.88 0 0 0-122.88 122.88V588.8z m163.84-143.36a30.72 30.72 0 0 1-30.72-30.72v-266.24a30.72 30.72 0 0 1 61.44 0v266.24A30.72 30.72 0 0 1 368.64 445.44z m143.36 0a30.72 30.72 0 0 1-30.72-30.72v-266.24a30.72 30.72 0 0 1 61.44 0v266.24A30.72 30.72 0 0 1 512 445.44z m143.36 0a30.72 30.72 0 0 1-30.72-30.72v-266.24a30.72 30.72 0 0 1 61.44 0v266.24A30.72 30.72 0 0 1 655.36 445.44zM430.08 732.16H143.36a40.96 40.96 0 1 1 0-81.92h737.28a40.96 40.96 0 1 1 0 81.92H593.92V773.12a20.48 20.48 0 0 1-20.48 20.48h-122.88a20.48 20.48 0 0 1-20.48-20.48v-40.96z"  horiz-adv-x="1024" />

    
    <glyph glyph-name="icon_message_system" unicode="&#58935;" d="M512-128C229.236364-128 0 101.236364 0 384S229.236364 896 512 896s512-229.236364 512-512-229.236364-512-512-512zM288.721455 490.519273C270.661818 491.136 256 477.125818 256 459.217455v-162.071273c0-17.908364 14.661818-31.918545 32.733091-31.301818l52.247273 1.768727a99.700364 99.700364 0 0 0 54.225454-13.649455l138.554182-96.418909c4.538182-2.385455 9.541818-3.700364 14.603636-3.84a31.709091 31.709091 0 0 1 32.733091 31.895273v385.163636c0 5.073455-1.186909 10.053818-3.444363 14.545455-8.064 15.988364-27.706182 22.016-43.892364 13.509818l-138.565818-96.418909a99.700364 99.700364 0 0 0-54.225455-13.649455l-52.247272 1.768728z m376.576 46.208a24.32 24.32 0 1 1 24.32-42.112l57.088 32.965818a24.32 24.32 0 1 1-24.32 42.112l-57.088-32.965818z m81.408-305.954909l-57.099637 32.965818a24.32 24.32 0 0 1-24.308363-42.112l57.088-32.954182a24.32 24.32 0 0 1 24.32 42.100364zM689.408 402.501818a24.32 24.32 0 0 1 0-48.616727h65.92a24.32 24.32 0 0 1 0 48.616727h-65.92z"  horiz-adv-x="1024" />

    
    <glyph glyph-name="icon_message_update" unicode="&#58936;" d="M512-128C229.236364-128 0 101.236364 0 384S229.236364 896 512 896s512-229.236364 512-512-229.236364-512-512-512z m12.683636 682.589091a39.098182 39.098182 0 0 0-37.003636 26.437818l-7.144727 20.898909A39.098182 39.098182 0 0 1 443.531636 628.363636H283.461818A39.098182 39.098182 0 0 1 244.363636 589.265455v-335.476364c0-63.453091 45.207273-114.897455 100.968728-114.897455h336.581818c55.773091 0 100.980364 51.444364 100.980363 114.909091V516.305455c0 21.143273-15.069091 38.283636-33.664 38.283636H524.683636zM568.203636 339.456h20.829091c3.886545 0 7.645091 1.442909 10.577455 4.049455a16.651636 16.651636 0 0 1 1.512727 23.156363l-77.032727 69.911273a15.825455 15.825455 0 0 1-24.168727 0l-77.032728-69.911273c-2.56-2.990545-3.979636-6.830545-3.979636-10.798545 0-9.076364 7.191273-16.407273 16.058182-16.407273h20.829091v-67.048727c0-9.064727 7.179636-16.407273 16.058181-16.407273h80.29091c8.878545 0 16.058182 7.342545 16.058181 16.407273v67.048727z"  horiz-adv-x="1024" />

    
    <glyph glyph-name="icon_message_comment" unicode="&#58937;" d="M512-128C229.236364-128 0 101.236364 0 384S229.236364 896 512 896s512-229.236364 512-512-229.236364-512-512-512z m19.316364 314.181818H605.090909c109.253818 0 197.818182 88.564364 197.818182 197.818182s-88.564364 197.818182-197.818182 197.818182H418.909091c-109.253818 0-197.818182-88.564364-197.818182-197.818182s88.564364-197.818182 197.818182-197.818182h4.096l-8.308364-64.139636a11.636364 11.636364 0 0 1 18.618182-10.740364L531.316364 186.181818zM389.818182 349.090909a29.090909 29.090909 0 1 1 0 58.181818 29.090909 29.090909 0 0 1 0-58.181818zM517.818182 349.090909a29.090909 29.090909 0 1 1 0 58.181818 29.090909 29.090909 0 0 1 0-58.181818zM645.818182 349.090909a29.090909 29.090909 0 1 1 0 58.181818 29.090909 29.090909 0 0 1 0-58.181818z"  horiz-adv-x="1024" />

    
    <glyph glyph-name="icon_message_help" unicode="&#58938;" d="M512-128C229.236364-128 0 101.236364 0 384S229.236364 896 512 896s512-229.236364 512-512-229.236364-512-512-512z m109.882182 698.181818a145.873455 145.873455 0 0 1-109.952-50.478545A145.873455 145.873455 0 0 1 401.989818 570.181818C326.272 570.181818 267.636364 512.581818 267.636364 438.050909c0-91.298909 83.037091-164.538182 208.907636-277.434182l20.072727-17.687272a23.272727 23.272727 0 0 1 30.766546 0l20.072727 17.687272C673.256727 273.524364 756.363636 346.763636 756.363636 438.050909 756.293818 512.581818 697.658182 570.181818 621.882182 570.181818z"  horiz-adv-x="1024" />

    
    <glyph glyph-name="icon_tab_project" unicode="&#58939;" d="M179.2 819.2h665.6a51.2 51.2 0 0 0 51.2-51.2v-691.2a153.6 153.6 0 0 0-153.6-153.6H281.6a153.6 153.6 0 0 0-153.6 153.6V768a51.2 51.2 0 0 0 51.2 51.2z m128-195.968a51.2 51.2 0 1 1 0-102.4h185.6a51.2 51.2 0 1 1 0 102.4H307.2z m0-195.968a51.2 51.2 0 1 1 0-102.4h409.6a51.2 51.2 0 1 1 0 102.4H307.2z m0-195.9936a51.2 51.2 0 1 1 0-102.4h409.6a51.2 51.2 0 1 1 0 102.4H307.2z"  horiz-adv-x="1024" />

    
    <glyph glyph-name="icon_tab_personal" unicode="&#58940;" d="M512 625.5872m-204.8 0a204.8 204.8 0 1 1 409.6 0 204.8 204.8 0 1 1-409.6 0ZM281.6 292.7872h460.8a153.6 153.6 0 0 0 153.6-153.6v-153.6a51.2 51.2 0 0 0-51.2-51.2H179.2a51.2 51.2 0 0 0-51.2 51.2v153.6a153.6 153.6 0 0 0 153.6 153.6z"  horiz-adv-x="1024" />

    
    <glyph glyph-name="icon_home_sel" unicode="&#58941;" d="M844.8 460.8v-358.4a153.6 153.6 0 0 0-153.6-153.6h-36.736v217.6a64 64 0 1 1-128 0V-51.2H332.8a153.6 153.6 0 0 0-153.6 153.6V460.8H121.8304a38.4 38.4 0 0 0-22.016 69.8624L482.6112 798.6432a51.2 51.2 0 0 0 58.7264 0L924.2112 530.688a38.4 38.4 0 0 0-22.016-69.8624H844.8z"  horiz-adv-x="1024" />

    
    <glyph glyph-name="icon_tab_message" unicode="&#58942;" d="M51.2-1.536V768a51.2 51.2 0 0 0 51.2 51.2h819.2a51.2 51.2 0 0 0 51.2-51.2v-576.128a153.6 153.6 0 0 0-153.6-153.6H347.904a51.2 51.2 0 0 1-19.2-3.712l-207.1552-83.584A51.2 51.2 0 0 0 51.2-1.536z m243.2256 475.136a64 64 0 1 1 0-128 64 64 0 0 1 0 128z m217.5488 0a64 64 0 1 1 0-128 64 64 0 0 1 0 128z m217.5232 0a64 64 0 1 1 0-128 64 64 0 0 1 0 128z"  horiz-adv-x="1024" />

    
    <glyph glyph-name="icon_search" unicode="&#58948;" d="M789.473882 191.728941l171.248942-171.279059a60.235294 60.235294 0 1 0-85.172706-85.172706l-171.279059 171.248942A419.779765 419.779765 0 0 0 451.764706 22.588235C218.895059 22.588235 30.117647 211.365647 30.117647 444.235294S218.895059 865.882353 451.764706 865.882353s421.647059-188.777412 421.647059-421.647059c0-94.72-31.232-182.121412-83.937883-252.506353zM451.764706 143.058824c166.339765 0 301.176471 134.836706 301.17647 301.17647S618.104471 745.411765 451.764706 745.411765 150.588235 610.575059 150.588235 444.235294s134.836706-301.176471 301.176471-301.17647z"  horiz-adv-x="1024" />

    
    <glyph glyph-name="icon_arrow_down" unicode="&#58943;" d="M141.76 530.304L59.456 448 512-4.544 964.544 448l-82.304 82.304L512 160z"  horiz-adv-x="1024" />

    
    <glyph glyph-name="icon_arrow_up" unicode="&#58944;" d="M882.24 173.696L964.544 256 512 708.544 59.456 256l82.304-82.304L512 544z"  horiz-adv-x="1024" />

    
    <glyph glyph-name="icon_select" unicode="&#58945;" d="M1016.459636 726.434909L931.886545 798.254545a19.828364 19.828364 0 0 1-28.532363-3.072L416.488727 175.941818 102.213818 442.647273a19.828364 19.828364 0 0 1-28.532363-2.978909L4.561455 351.790545a21.643636 21.643636 0 0 1 2.978909-29.696l326.004363-276.619636c1.024-1.396364 2.048-2.699636 3.490909-3.863273l84.573091-71.726545c8.704-7.447273 21.504-6.004364 28.672 2.978909L1019.438545 696.738909a21.643636 21.643636 0 0 1-2.978909 29.696"  horiz-adv-x="1024" />

    
    <glyph glyph-name="icon_renzheng" unicode="&#58946;" d="M512-48C264.576-48 64 152.576 64 400S264.576 848 512 848s448-200.576 448-448-200.576-448-448-448z m225.424 663.68l-6.528 16.96-17.76 2.112c-74.72 8.944-141.888 29.856-194.256 60.544L504 704l-14.848-8.704c-52.384-30.688-119.52-51.6-194.272-60.544l-17.776-2.128-6.496-16.944C250.608 563.456 240 504.32 240 444.736c0-124.08 37.264-206.32 83.568-260.72-0.064-0.64-0.208-1.312-0.256-1.952h1.984c75.28-86.912 173.344-101.248 174.928-101.472l4.592-0.592 4.56 0.832c2.72 0.528 66.592 12.848 130.24 64.224a321.712 321.712 0 0 1 36.304 34.368c2.832 2.976 4.848 5.184 7.776 8.8C728.32 241.12 768 322.48 768 444.72c0 59.6-10.56 118.736-30.576 170.96z m-156.88-325.632c-8.944 4.448-17.872 10.688-20.864 19.6-1.984 11.6-0.992 24.08-0.992 36.56 4.96 3.568 7.952 8.016 10.928 12.48 4.96 9.808 8.944 20.512 10.928 31.2 3.984 0.896 7.952 2.672 9.92 6.24 4.992 6.24 5.984 13.376 6.976 20.512 0 6.24-1.984 13.36-7.952 16.944 6.96 20.496 10.928 41.888 8.96 63.296-1.008 12.48-5.984 25.84-16.912 34.768-6.944 6.24-16.896 8.912-26.816 10.704-2 2.656-4.976 6.24-8.96 8-9.92 5.36-21.856 7.152-33.76 7.152-19.872 0-41.728-2.688-58.624-14.256-8.944-5.36-15.888-12.48-19.872-21.408-4.96-9.808-6.944-21.408-7.952-32.976-0.992-17.84 2.976-36.56 7.952-54.4-5.968-3.568-7.952-8.912-7.952-15.152 0-5.344 1.008-11.6 3.984-16.944 1.984-5.344 6.944-9.808 12.912-10.688a96.96 96.96 0 0 1 10.928-29.424c2.976-4.464 6.96-9.808 11.92-13.376 0-11.584 1.008-24.08-0.992-36.544-3.968-10.704-14.896-16.944-25.824-22.288-22.848-10.704-48.688-16.944-70.56-29.44-2.48-1.328-4.672-3.072-6.992-4.608-21.344 29.776-39.424 68.4-49.344 118.832 0 0-7.968 43.44-7.568 82.56 0 44.48 7.216 88.48 20.992 128.352 57.184 7.968 110.24 22.24 156.736 41.856l30.24 12.4 30.288-12.4c46.528-19.632 99.584-33.888 156.752-41.856 13.712-39.744 20.912-83.552 20.976-127.872-0.208-1.168-2-54.752-8.304-83.04-10.768-50.32-29.92-88.88-52.16-118.768-24.544 15.36-53.648 20.864-78.992 33.984z"  horiz-adv-x="1024" />

    
    <glyph glyph-name="icon_login_close" unicode="&#58947;" d="M500.24448 511.5904L876.78976 888.13568l115.83488-115.87584-376.50432-376.50432 376.50432-376.54528-115.83488-115.83488-376.54528 376.50432-376.50432-376.50432-115.87584 115.83488 376.54528 376.54528L7.86432 772.25984 123.74016 888.13568z"  horiz-adv-x="1024" />

    
    <glyph glyph-name="icon_hospital_locate" unicode="&#58949;" d="M548.1728-10.624a51.2 51.2 0 0 0-72.3456 0C278.0672 186.7776 179.2 343.5264 179.2 459.648 179.2 644.0448 328.192 793.6 512 793.6s332.8-149.504 332.8-333.9776c0-116.096-98.8672-272.8448-296.6272-470.272zM512 305.4848c84.8384 0 153.6 69.0176 153.6 154.1376 0 85.1456-68.7616 154.1376-153.6 154.1376s-153.6-68.992-153.6-154.112c0-85.1456 68.7616-154.1632 153.6-154.1632z"  horiz-adv-x="1024" />

    
    <glyph glyph-name="icon_hospital_phone" unicode="&#58950;" d="M330.2656 424.8064a25.9584 25.9584 0 0 0 9.216 34.4832l95.6672 59.4176a26.112 26.112 0 0 1 11.8272 16.896 25.088 25.088 0 0 1-3.2256 18.6368c-0.256 0.4096-50.2272 68.224-149.9392 203.4432a51.3536 51.3536 0 0 1-77.8496 5.3504l-14.4128-14.3872a285.2352 285.2352 0 0 1-52.224-224.7168c-10.24 54.0416-12.7488 109.3376-8.2432 164.224l74.88 74.88L141.056 688.128c-14.848-181.0432 46.3616-366.336 183.9616-503.9104 137.5744-137.6 322.8672-198.8096 503.9104-183.9616l74.88 74.88-74.88-74.88a612.2752 612.2752 0 0 0-164.224 8.2688 285.2352 285.2352 0 0 1 224.6912 52.224l14.4128 14.3872a51.3536 51.3536 0 0 1-5.3248 77.8752 198731.4688 198731.4688 0 0 1-203.4688 149.9136 25.088 25.088 0 0 1-18.6368 3.2256 26.112 26.112 0 0 1-16.896-11.8272l-59.4176-95.6672c-7.3216-11.776-22.5024-15.8208-34.4832-9.216-36.608 20.1472-79.9744 55.2448-130.048 105.2672-50.048 50.0992-85.1456 93.44-105.2928 130.048z"  horiz-adv-x="1024" />

    
    <glyph glyph-name="icon_manager_update" unicode="&#58955;" d="M1003.52 220.16c0-118.08768-95.96928-213.8112-214.34368-213.8112H255.36512C125.6448 6.3488 20.48 111.24736 20.48 240.64c0 103.8336 68.1984 193.65888 164.80256 223.68256C195.072 630.1696 333.0048 761.6512 501.76 761.6512c175.06304 0 316.98944-141.57824 316.98944-316.2112 0-4.5056-0.08192-8.97024-0.26624-13.45536C922.99264 417.75104 1003.52 328.33536 1003.52 220.16z m-214.34368-154.8288c85.72928 0 155.21792 69.3248 155.21792 154.8288s-69.48864 154.8288-155.2384 154.8288l-2.4576-0.04096a29.53216 29.53216 0 0 0-29.696 33.6896c1.72032 12.10368 2.60096 24.39168 2.60096 36.80256 0 142.06976-115.44576 257.2288-257.86368 257.2288S243.85536 587.50976 243.85536 445.44l0.04096-3.6864a29.4912 29.4912 0 0 0-23.69536-29.30688A175.47264 175.47264 0 0 1 79.60576 240.64c0-96.82944 78.68416-175.3088 175.75936-175.3088h533.8112z m-387.3792 203.42784A123.00288 123.00288 0 0 1 512.32768 199.68a122.88 122.88 0 0 1 121.73312 106.04544 20.48 20.48 0 0 0 40.57088-5.5296 163.36896 163.36896 0 0 0-14.58176-48.57856A163.84 163.84 0 0 0 512.32768 158.72a163.96288 163.96288 0 0 0-155.0336 110.6944 20.48 20.48 0 0 0-22.28224 33.44384l28.95872 28.95872a20.48 20.48 0 0 0 29.0816 0.06144l28.95872-28.9792a20.48 20.48 0 0 0-20.21376-34.14016z m219.87328 138.21952a123.00288 123.00288 0 0 1-110.53056 69.05856 122.88 122.88 0 0 1-121.73312-106.04544 20.48 20.48 0 1 0-40.59136 5.55008 163.36896 163.36896 0 0 0 14.60224 48.55808 163.84 163.84 0 0 0 147.72224 92.89728 163.96288 163.96288 0 0 0 155.0336-110.6944 20.48 20.48 0 0 0 22.28224-33.42336l-28.95872-28.95872a20.48 20.48 0 0 0-29.0816-0.06144l-28.95872 28.95872a20.48 20.48 0 0 0 20.21376 34.16064z"  horiz-adv-x="1024" />

    
    <glyph glyph-name="icon_personal_kefu1" unicode="&#58956;" d="M73.728 399.44192c0 242.0736 196.21888 438.272 438.272 438.272 242.05312 0 438.272-196.1984 438.272-438.272v-286.72a49.152 49.152 0 0 0-49.152-49.152h-143.36a49.152 49.152 0 0 0-49.152 49.152v286.72a49.152 49.152 0 0 0 49.152 49.152h132.03456c-24.12544 187.1872-184.07424 331.776-377.79456 331.776-193.7408 0-353.6896-144.5888-377.79456-331.776H266.24a49.152 49.152 0 0 0 49.152-49.152v-216.00256a28.672 28.672 0 0 0-57.344 0V391.24992H131.072v-268.45184a81.92 81.92 0 0 1 81.92-81.92h222.24896a81.96096 81.96096 0 0 0 158.67904-28.672 81.92 81.92 0 0 0-158.67904-28.672H196.608a122.88 122.88 0 0 0-122.88 122.88V399.44192zM512-28.75392a40.96 40.96 0 1 1 0 81.92 40.96 40.96 0 0 1 0-81.92z m253.952 149.66784h126.976v270.336h-126.976v-270.336z"  horiz-adv-x="1024" />

    
    <glyph glyph-name="icon_attention" unicode="&#58957;" d="M512-128C229.2224-128 0 101.2224 0 384S229.2224 896 512 896s512-229.2224 512-512-229.2224-512-512-512zM460.8 691.2v-409.6h102.4V691.2h-102.4z m0-512v-102.4h102.4v102.4h-102.4z"  horiz-adv-x="1024" />

    
    <glyph glyph-name="icon_detail_patient1" unicode="&#58958;" d="M215.578947 896h592.842106a215.578947 215.578947 0 0 0 215.578947-215.578947v-592.842106a215.578947 215.578947 0 0 0-215.578947-215.578947H215.578947a215.578947 215.578947 0 0 0-215.578947 215.578947V680.421053a215.578947 215.578947 0 0 0 215.578947 215.578947z m293.726316-783.279158c236.732632 0 350.315789 269.473684 350.31579 269.473684s-113.583158 269.473684-350.31579 269.473685-350.315789-269.473684-350.315789-269.473685 113.583158-269.473684 350.315789-269.473684z m0 461.958737c120.939789 0 218.947368-86.177684 218.947369-192.485053S630.245053 189.709474 509.305263 189.709474c-120.939789 0-218.947368 86.177684-218.947368 192.485052s98.007579 192.485053 218.947368 192.485053z m0-307.954526c72.569263 0 131.368421 51.712 131.368421 115.469473 0 63.784421-58.799158 115.496421-131.368421 115.496421-15.440842 0-30.019368-2.775579-43.789474-7.06021v-69.928421h-79.548631c-4.850526-12.126316-8.030316-24.926316-8.030316-38.50779 0-63.757474 58.799158-115.469474 131.368421-115.469473z"  horiz-adv-x="1024" />

    
    <glyph glyph-name="icon_detail_raiser" unicode="&#58959;" d="M476.4416 258.6368V314.88a17.92 17.92 0 0 0 17.92 17.92h35.2768a17.92 17.92 0 0 0 17.92-17.92v-56.2432h56.2432a17.92 17.92 0 0 0 17.92-17.92v-35.2768a17.92 17.92 0 0 0-17.92-17.92h-56.2432v-56.2176a17.92 17.92 0 0 0-17.92-17.92H494.336a17.92 17.92 0 0 0-17.92 17.92v56.2176h-56.2432a17.92 17.92 0 0 0-17.92 17.92v35.2768a17.92 17.92 0 0 0 17.92 17.92h56.2432z m176.4096 141.4144a174.08 174.08 0 0 1 41.984 113.3824C694.8608 611.584 613.0176 691.2 512 691.2c-100.992 0-182.8608-79.616-182.8608-177.7664a174.08 174.08 0 0 1 41.984-113.3824A161.3568 161.3568 0 0 1 256 245.504V87.04a35.84 35.84 0 0 1 35.84-35.84h440.32a35.84 35.84 0 0 1 35.84 35.84v158.4384a161.3568 161.3568 0 0 1-115.1488 154.5728zM204.8 896h614.4a204.8 204.8 0 0 0 204.8-204.8v-614.4a204.8 204.8 0 0 0-204.8-204.8H204.8a204.8 204.8 0 0 0-204.8 204.8V691.2a204.8 204.8 0 0 0 204.8 204.8z"  horiz-adv-x="1024" />

    
    <glyph glyph-name="icon_detail_disease" unicode="&#58960;" d="M204.8 896h614.4a204.8 204.8 0 0 0 204.8-204.8v-614.4a204.8 204.8 0 0 0-204.8-204.8H204.8a204.8 204.8 0 0 0-204.8 204.8V691.2a204.8 204.8 0 0 0 204.8 204.8z m570.8032-446.592a264.32 264.32 0 0 1-69.2992 122.9824c25.7024-23.3472 26.752-18.176 26.752-11.9552a63.5392 63.5392 0 0 1-64.4352 63.3088c-8.192 0-15.9744-1.536-23.168-4.3008a295.8336 295.8336 0 0 1-77.3888 30.2336A63.7952 63.7952 0 0 1 508.8768 691.2c-26.9824 0-50.8416-16.6144-59.1616-41.5232a271.0272 271.0272 0 0 1-121.6-62.0288c23.2192 24.576 16.2816 25.728 9.088 25.728h-0.64c-16.5632 0-33.1776-6.2464-44.5952-18.688-17.6384-17.6384-22.8608-43.5968-14.5152-67.456a248.4736 248.4736 0 0 1-36.352-80.9728A64.7168 64.7168 0 0 1 204.8 388.1472c0-22.8352 12.4416-44.6208 32.1792-55.0144 7.424-43.264 24.1152-81.6896 48-114.56-21.4272 17.5104-24.1152 7.04-24.1408-4.0192 0-35.0208 29.056-63.0272 63.3088-63.0272 8.2944 0 16.6144 2.0736 23.8592 5.1712a256.512 256.512 0 0 1 132.4288-49.6384c-17.2032-16.768 3.5328-30.2592 27.392-30.2592 23.8848 0 45.6704 13.4912 56.064 34.2528a271.2832 271.2832 0 0 1 88.192 35.2768c23.8848-11.4176 52.9408-6.2208 72.6528 12.4416a63.6416 63.6416 0 0 1 18.7648 45.2096c0 9.1648-1.9456 17.8944-5.4272 25.7792a260.6848 260.6848 0 0 1 40.6528 100.2496A64.3584 64.3584 0 0 1 819.2 389.1712c0 27.008-17.6128 51.9424-43.5712 60.2112z m-415.1296-105.8816a24.1408 24.1408 0 0 0-23.8592 23.8848c0 13.4912 11.4176 23.8848 23.8592 23.8848 13.4912 0 23.8848-11.4432 23.8848-23.8848v-0.384c0-12.9792-10.5216-23.5008-23.5008-23.5008h-0.4096 0.0256z m21.7856 110.0288a40.5248 40.5248 0 0 0-40.448 40.4736c0 21.8112 17.6128 40.4992 40.448 40.4992 22.8608 0 40.4992-17.664 40.4992-40.4992 0-21.7856-18.688-40.448-40.4992-40.448v-0.0256z m81.9968-270.8992c-19.712 0-36.3264 16.64-36.3264 37.376 0 19.712 16.64 36.352 36.352 36.352 19.712 0 36.3008-16.64 36.3008-36.352 0-19.712-15.5648-37.376-36.3264-37.376z m58.112 157.7728H522.24a56.9344 56.9344 0 0 0-56.9344 56.9344v0.1536 0.1536c0 31.4624 25.4976 56.9344 56.9344 56.9344H522.5472c31.4368 0 56.9088-25.472 56.9088-56.9344v-0.1536c-1.024-32.1792-25.9328-57.088-57.088-57.088z m135.9616-51.8912h-0.2048a16.384 16.384 0 0 0-16.384 16.384v0.2304a16.384 16.384 0 0 0 16.5888 16.5888 16.384 16.384 0 0 0 16.64-16.6144c-1.0752-9.344-8.32-16.6144-16.64-16.6144z m0 154.6496a19.712 19.712 0 1 0 19.712 19.712c1.0496-10.3936-8.2944-19.712-19.712-19.712z"  horiz-adv-x="1024" />

    
    <glyph glyph-name="icon_detail_hospital1" unicode="&#58961;" d="M369.3824 564.6848v24.4736a17.92 17.92 0 0 0 17.92 17.92h18.9952a17.92 17.92 0 0 0 17.92-17.92v-24.4736h24.4736a17.92 17.92 0 0 0 17.92-17.92v-18.9952a17.92 17.92 0 0 0-17.92-17.92h-24.4736v-24.4736a17.92 17.92 0 0 0-17.92-17.92h-18.9952a17.92 17.92 0 0 0-17.92 17.92v24.4736h-24.4736a17.92 17.92 0 0 0-17.92 17.92v18.9952a17.92 17.92 0 0 0 17.92 17.92h24.4736zM588.8 486.4V655.36A35.84 35.84 0 0 1 552.96 691.2H240.64A35.84 35.84 0 0 1 204.8 655.36v-568.32A35.84 35.84 0 0 1 240.64 51.2h312.32a35.84 35.84 0 0 1 10.24 1.4848V51.2h220.16a35.84 35.84 0 0 1 35.84 35.84V450.56a35.84 35.84 0 0 1-35.84 35.84H588.8zM204.8 896h614.4a204.8 204.8 0 0 0 204.8-204.8v-614.4a204.8 204.8 0 0 0-204.8-204.8H204.8a204.8 204.8 0 0 0-204.8 204.8V691.2a204.8 204.8 0 0 0 204.8 204.8z m394.5984-536.5248h128.7424a17.92 17.92 0 0 0 17.92-17.92v-36.7104a17.92 17.92 0 0 0-17.92-17.92h-128.7424a17.92 17.92 0 0 0-17.92 17.92v36.7104a17.92 17.92 0 0 0 17.92 17.92z m0-126.9504h128.7424a17.92 17.92 0 0 0 17.92-17.92v-36.6848a17.92 17.92 0 0 0-17.92-17.92h-128.7424a17.92 17.92 0 0 0-17.92 17.92v36.6848a17.92 17.92 0 0 0 17.92 17.92z m-306.4064 166.0928h33.0496a35.84 35.84 0 0 0 35.84-35.84v-38.016a35.84 35.84 0 0 0-35.84-35.84h-33.024a35.84 35.84 0 0 0-35.84 35.84V362.752a35.84 35.84 0 0 0 35.84 35.84z m0-164.5568h33.0496a35.84 35.84 0 0 0 35.84-35.84v-38.0416a35.84 35.84 0 0 0-35.84-35.84h-33.024a35.84 35.84 0 0 0-35.84 35.84v38.0416a35.84 35.84 0 0 0 35.84 35.84z m174.5664 0h33.024a35.84 35.84 0 0 0 35.84-35.84v-38.0416a35.84 35.84 0 0 0-35.84-35.84h-33.024a35.84 35.84 0 0 0-35.84 35.84v38.0416a35.84 35.84 0 0 0 35.84 35.84z m0 164.5568h33.024a35.84 35.84 0 0 0 35.84-35.84v-38.016a35.84 35.84 0 0 0-35.84-35.84h-33.024a35.84 35.84 0 0 0-35.84 35.84V362.752a35.84 35.84 0 0 0 35.84 35.84z"  horiz-adv-x="1024" />

    
    <glyph glyph-name="icon_blockchain" unicode="&#58962;" d="M512-128C229.228089-128 0 101.228089 0 384S229.228089 896 512 896s512-229.228089 512-512-229.228089-512-512-512z m123.266844 591.644444C624.4352 528.213333 568.274489 577.422222 500.622222 577.422222H318.577778c-75.400533 0-136.533333-61.1328-136.533334-136.533333s61.1328-136.533333 136.533334-136.533333h70.155378c10.831644-64.568889 66.992356-113.777778 134.644622-113.777778h182.044444c75.400533 0 136.533333 61.1328 136.533334 136.533333s-61.1328 136.533333-136.533334 136.533333h-70.155378z m-46.4896 0H523.377778c-67.652267 0-123.812978-49.208889-134.644622-113.777777H318.577778a91.022222 91.022222 0 1 0 0 182.044444h182.044444c42.416356 0 78.051556-29.013333 88.155022-68.266667zM523.377778 418.133333h182.044444a91.022222 91.022222 0 1 0 0-182.044444H523.377778a91.022222 91.022222 0 1 0 0 182.044444z"  horiz-adv-x="1024" />

    
    <glyph glyph-name="icon_" unicode="&#58963;" d="M512-128C229.2224-128 0 101.2224 0 384S229.2224 896 512 896s512-229.2224 512-512-229.2224-512-512-512z m-4.9664 256h72.8064V596.992H507.392l-123.4944-87.1168v-74.4192l117.6576 83.2h5.504V128z"  horiz-adv-x="1024" />

    
    <glyph glyph-name="icon_1" unicode="&#58964;" d="M512-128C229.2224-128 0 101.2224 0 384S229.2224 896 512 896s512-229.2224 512-512-229.2224-512-512-512z m-153.5232 589.44v-0.9728h68.9152v0.9728c0 50.048 34.7648 83.8656 86.4256 83.8656 48.4352 0 85.1712-32.1792 85.1712-75.0848 0-34.4576-15.2832-59.136-78.0032-124.4672l-158.6176-165.12V128h315.904v65.3312h-214.5024v5.5296l104.3456 105.6256c78.6432 79.616 102.6816 120.2432 102.6816 169.984 0 77.312-65.6384 133.888-154.7008 133.888-92.288 0-157.6192-60.4672-157.6192-146.9184z"  horiz-adv-x="1024" />

    
    <glyph glyph-name="icon" unicode="&#58965;" d="M512-128C229.2224-128 0 101.2224 0 384S229.2224 896 512 896s512-229.2224 512-512-229.2224-512-512-512z m-68.0192 466.6112h59.1616c61.44 0 99.456-30.2336 99.456-78.6688 0-46.1312-40.2944-78.976-97.5104-78.976-56.8832 0-95.872 28.928-100.4288 74.4448h-69.888c4.2496-83.8656 71.8336-138.7776 170.3168-138.7776 97.8176 0 171.9296 59.8016 171.9296 139.4176 0 62.72-38.9888 106.5984-103.0144 114.0736v5.5296c51.6608 11.6992 83.84 53.2992 83.84 108.544 0 70.528-66.944 124.16-154.0608 124.16-93.9264 0-155.008-52.3264-159.8976-137.1648h69.2224c3.9168 46.1568 37.376 74.4192 88.4224 74.4192 51.0208 0 84.48-28.5952 84.48-72.1408 0-44.1856-34.7648-74.752-85.1456-74.752h-56.8832v-60.1088z"  horiz-adv-x="1024" />

    
    <glyph glyph-name="icon_collect" unicode="&#58967;" d="M512-128C229.236364-128 0 101.236364 0 384S229.236364 896 512 896s512-229.236364 512-512-229.236364-512-512-512z m5.818182 332.276364l136.436363-46.196364a23.272727 23.272727 0 0 1 30.731637 22.341818l-1.768727 144.023273 86.085818 115.479273a23.272727 23.272727 0 0 1-11.741091 36.130909l-137.530182 42.821818-83.223273 117.562182a23.272727 23.272727 0 0 1-37.981091 0l-83.223272-117.562182-137.541819-42.821818a23.272727 23.272727 0 0 1-11.729454-36.130909l86.085818-115.479273-1.768727-144.034909a23.272727 23.272727 0 0 1 30.731636-22.330182l136.436364 46.196364z"  horiz-adv-x="1024" />

    
    <glyph glyph-name="icon_raise" unicode="&#58968;" d="M512-128C229.236364-128 0 101.236364 0 384S229.236364 896 512 896s512-229.236364 512-512-229.236364-512-512-512zM288.116364 638.545455a32.116364 32.116364 0 0 1-32.116364-32.116364v-168.494546a32.116364 32.116364 0 0 1 32.116364-32.116363h168.494545a32.116364 32.116364 0 0 1 32.116364 32.116363v168.494546a32.116364 32.116364 0 0 1-32.116364 32.116364H288.116364z m0-288a32.116364 32.116364 0 0 1-32.116364-32.116364v-168.494546a32.116364 32.116364 0 0 1 32.116364-32.116363h168.494545a32.116364 32.116364 0 0 1 32.116364 32.116363v168.494546a32.116364 32.116364 0 0 1-32.116364 32.116364H288.116364z m288 0a32.116364 32.116364 0 0 1-32.116364-32.116364v-168.494546a32.116364 32.116364 0 0 1 32.116364-32.116363h168.494545a32.116364 32.116364 0 0 1 32.116364 32.116363v168.494546a32.116364 32.116364 0 0 1-32.116364 32.116364H576.116364z m226.094545 148.922181a32.116364 32.116364 0 0 1 0 45.428364L683.089455 664.040727a32.116364 32.116364 0 0 1-45.428364 0L518.516364 544.884364a32.116364 32.116364 0 0 1 0-45.416728L637.672727 380.322909a32.116364 32.116364 0 0 1 45.416728 0l119.144727 119.156364z"  horiz-adv-x="1024" />

    
    <glyph glyph-name="icon_raise1" unicode="&#58969;" d="M464 432h-128a48 48 0 0 1 0-96h128v-128a48 48 0 0 1 96 0v128h128a48 48 0 0 1 0 96h-128v128a48 48 0 0 1-96 0v-128z m48-560C229.232-128 0 101.232 0 384 0 666.768 229.232 896 512 896c282.768 0 512-229.232 512-512 0-282.768-229.232-512-512-512z"  horiz-adv-x="1024" />

    
    <glyph glyph-name="icon_fail" unicode="&#58970;" d="M512 456.3968l-162.9184 162.9184-72.3968-72.3968L439.6032 384l-162.9184-162.9184 72.3968-72.3968L512 311.6032l162.9184-162.9184 72.3968 72.3968L584.3968 384l162.9184 162.9184-72.3968 72.3968L512 456.3968zM512-128C229.2224-128 0 101.2224 0 384S229.2224 896 512 896s512-229.2224 512-512-229.2224-512-512-512z"  horiz-adv-x="1024" />

    
    <glyph glyph-name="icon_detail_browser" unicode="&#58882;" d="M525.473684 640a569.128421 569.128421 0 0 0-98.519579 8.569263c29.938526 120.239158 74.967579 183.430737 98.519579 183.430737 23.552 0 68.581053-63.191579 98.519579-183.430737A580.608 580.608 0 0 0 525.473684 640zM686.268632 663.309474c-15.548632 63.649684-36.325053 117.274947-60.685474 157.022315a447.326316 447.326316 0 0 0 193.158737-98.384842 542.585263 542.585263 0 0 0-132.473263-58.637473zM364.678737 663.309474a546.142316 546.142316 0 0 0-132.338526 58.637473 446.706526 446.706526 0 0 0 193.024 98.277053c-24.360421-39.639579-45.029053-93.237895-60.685474-156.914526zM716.907789 415.986526a1232.653474 1232.653474 0 0 1-17.596631 184.481685 605.130105 605.130105 0 0 1 165.456842 75.183157 445.601684 445.601684 0 0 0 107.115789-259.664842h-254.976zM79.063579 415.986526A446.086737 446.086737 0 0 0 185.936842 675.570526c49.717895-32.579368 105.606737-57.829053 165.726316-74.967579a1235.698526 1235.698526 0 0 1-17.623579-184.589473H79.063579zM398.039579 415.986526c1.482105 63.676632 7.329684 120.454737 15.898947 169.957053 36.109474-6.413474 73.242947-9.943579 111.535158-9.943579 38.184421 0 75.452632 3.422316 111.562105 9.835789 8.542316-49.502316 14.282105-106.280421 15.872-169.849263H398.012632zM864.794947 92.348632a605.130105 605.130105 0 0 1-165.483789 75.183157c9.943579 56.697263 16.114526 118.864842 17.596631 184.481685h254.976a445.601684 445.601684 0 0 0-107.088842-259.664842zM413.911579 182.056421c-8.542316 49.475368-14.282105 106.280421-15.872 169.930105h254.760421c-1.509053-63.541895-7.221895-120.32-15.898947-169.822315a636.389053 636.389053 0 0 1-111.427369 9.835789 638.652632 638.652632 0 0 1-111.562105-9.943579zM186.044632 92.456421a445.332211 445.332211 0 0 0-106.846316 259.530105H334.147368c1.509053-65.697684 7.68-127.865263 17.623579-184.562526-60.119579-17.138526-116.008421-42.388211-165.726315-74.967579zM525.473684-64c-23.552 0-68.581053 63.191579-98.519579 183.430737A580.608 580.608 0 0 0 525.473684 128c33.711158 0 66.640842-3.098947 98.519579-8.569263-29.938526-120.239158-74.967579-183.430737-98.519579-183.430737zM625.583158-52.331789c24.360421 39.747368 45.136842 93.372632 60.685474 157.022315a544.714105 544.714105 0 0 0 132.473263-58.529684 446.302316 446.302316 0 0 0-193.158737-98.492631zM425.364211-52.331789a446.706526 446.706526 0 0 0-193.024 98.277052 537.950316 537.950316 0 0 0 132.311578 58.637474c15.683368-63.541895 36.378947-117.167158 60.712422-156.914526z"  horiz-adv-x="1050" />

    
    <glyph glyph-name="icon_attention1" unicode="&#58971;" d="M512-128C229.216-128 0 101.216 0 384S229.216 896 512 896s512-229.216 512-512-229.216-512-512-512z m53.888 210.528v107.776h-107.776v-107.776h107.776z m0 220.64V680.448h-107.776v-377.28h107.776z"  horiz-adv-x="1024" />

    
    <glyph glyph-name="icon_question" unicode="&#58972;" d="M511.522133 896c282.555733 0 511.522133-229.205333 511.522134-512 0-282.760533-228.9664-512-511.522134-512C229.000533-128 0 101.239467 0 384 0 666.760533 229.034667 896 511.522133 896zM546.133333 110.933333v68.266667h-68.266666v-68.266667h68.266666z m-4.608 136.533334c0.443733 26.112 2.286933 44.9536 5.393067 56.558933 3.1744 11.605333 7.953067 21.845333 14.506667 30.8224 6.485333 8.942933 20.309333 22.869333 41.472 41.642667 31.505067 28.0576 52.701867 51.882667 63.488 71.441066 10.888533 19.592533 16.2816 40.96 16.2816 64.170667 0 40.106667-15.36 74.274133-46.1824 102.536533C605.661867 642.901333 564.4288 657.066667 512.682667 657.066667c-48.8448 0-88.132267-13.175467-117.8624-39.492267-29.627733-26.350933-47.547733-64.3072-53.521067-113.834667l66.730667-7.953066c5.768533 36.9664 17.954133 64.170667 36.4544 81.578666 18.5344 17.339733 41.642667 26.043733 69.290666 26.043734 28.603733 0 52.8384-9.591467 72.567467-28.808534 19.694933-19.182933 29.559467-41.506133 29.559467-66.8672 0-13.994667-3.3792-26.965333-10.1376-38.775466-6.656-11.8784-21.333333-27.7504-43.8272-47.650134-22.459733-19.933867-38.058667-35.1232-46.762667-45.499733-11.776-14.267733-20.309333-28.398933-25.6-42.427733-7.168-18.602667-10.820267-40.721067-10.820267-66.321067 0-4.334933 0.1024-10.922667 0.341334-19.592533h62.395733z"  horiz-adv-x="1024" />

    
    <glyph glyph-name="icon_add" unicode="&#58973;" d="M471.04 424.96H40.96a40.96 40.96 0 1 1 0-81.92h430.08v-430.08a40.96 40.96 0 1 1 81.92 0V343.04h430.08a40.96 40.96 0 1 1 0 81.92H552.96V855.04a40.96 40.96 0 1 1-81.92 0v-430.08z"  horiz-adv-x="1024" />

    
    <glyph glyph-name="icon_delete" unicode="&#58974;" d="M512 474.496L104.704 881.792 14.208 791.296 421.504 384 14.208-23.296l90.496-90.496L512 293.504l407.296-407.296 90.496 90.496L602.496 384l407.296 407.296L919.296 881.792 512 474.496z"  horiz-adv-x="1024" />

    
    <glyph glyph-name="icon_tab_foundation" unicode="&#58975;" d="M896 76.8h51.2a25.6 25.6 0 0 0 25.6-25.6v-76.8a25.6 25.6 0 0 0-25.6-25.6H76.8a25.6 25.6 0 0 0-25.6 25.6v76.8a25.6 25.6 0 0 0 25.6 25.6h76.8V768a51.2 51.2 0 0 0 51.2 51.2h435.2a51.2 51.2 0 0 0 51.2-51.2v-153.6h153.6a51.2 51.2 0 0 0 51.2-51.2v-486.4zM281.6 665.6a25.6 25.6 0 0 1-25.6-25.6v-76.8a25.6 25.6 0 0 1 25.6-25.6h76.8a25.6 25.6 0 0 1 25.6 25.6v76.8a25.6 25.6 0 0 1-25.6 25.6h-76.8z m179.2 0a25.6 25.6 0 0 1-25.6-25.6v-76.8a25.6 25.6 0 0 1 25.6-25.6h76.8a25.6 25.6 0 0 1 25.6 25.6v76.8a25.6 25.6 0 0 1-25.6 25.6h-76.8z m-179.2-204.8a25.6 25.6 0 0 1-25.6-25.6v-76.8a25.6 25.6 0 0 1 25.6-25.6h76.8a25.6 25.6 0 0 1 25.6 25.6v76.8a25.6 25.6 0 0 1-25.6 25.6h-76.8z m179.2 0a25.6 25.6 0 0 1-25.6-25.6v-76.8a25.6 25.6 0 0 1 25.6-25.6h76.8a25.6 25.6 0 0 1 25.6 25.6v76.8a25.6 25.6 0 0 1-25.6 25.6h-76.8z m281.6 0a25.6 25.6 0 0 1-25.6-25.6v-40.96a25.6 25.6 0 0 1 25.6-25.6h40.96a25.6 25.6 0 0 1 25.6 25.6V435.2a25.6 25.6 0 0 1-25.6 25.6H742.4z m0-179.2a25.6 25.6 0 0 1-25.6-25.6v-40.96a25.6 25.6 0 0 1 25.6-25.6h40.96a25.6 25.6 0 0 1 25.6 25.6V256a25.6 25.6 0 0 1-25.6 25.6H742.4z m-460.8-25.6a25.6 25.6 0 0 1-25.6-25.6v-76.8a25.6 25.6 0 0 1 25.6-25.6h76.8a25.6 25.6 0 0 1 25.6 25.6v76.8a25.6 25.6 0 0 1-25.6 25.6h-76.8z m179.2 0a25.6 25.6 0 0 1-25.6-25.6v-76.8a25.6 25.6 0 0 1 25.6-25.6h76.8a25.6 25.6 0 0 1 25.6 25.6v76.8a25.6 25.6 0 0 1-25.6 25.6h-76.8z"  horiz-adv-x="1024" />

    
    <glyph glyph-name="icon_personal_help" unicode="&#58976;" d="M717.824 793.6c-79.2576 0-153.86624-35.6352-203.71456-93.53216A270.29504 270.29504 0 0 1 310.3744 793.6C170.0864 793.6 61.44 686.85824 61.44 548.78208c0-169.1648 153.86624-304.86528 387.09248-514.06848l38.6048-34.03776a40.96 40.96 0 0 1 54.1696 0l38.6048 34.03776c233.12384 209.2032 387.09248 344.8832 387.09248 514.048C966.88128 686.87872 858.25536 793.6 717.824 793.6z"  horiz-adv-x="1024" />

    
    <glyph glyph-name="icon_personal_focus1" unicode="&#58977;" d="M522.24 47.2064l-240.128-81.3056a40.96 40.96 0 0 0-54.08768 39.3216l3.11296 253.48096-151.51104 203.24352a40.96 40.96 0 0 0 20.66432 63.5904l242.05312 75.3664 146.47296 206.90944a40.96 40.96 0 0 0 66.84672 0l146.47296-206.90944 242.0736-75.3664a40.96 40.96 0 0 0 20.64384-63.5904l-151.51104-203.24352 3.11296-253.50144a40.96 40.96 0 0 0-54.08768-39.30112L522.24 47.2064z"  horiz-adv-x="1024" />

    
    <glyph glyph-name="icon_personal_settin1" unicode="&#58978;" d="M392.74496 598.9376c16.1792 8.99072 33.46432 16.19968 51.6096 21.4016l22.38464 76.5952a20.48 20.48 0 0 0 19.6608 14.7456h51.2a20.48 20.48 0 0 0 19.6608-14.7456l22.38464-76.5952 51.6096-21.4016 70.02112 38.35904a20.48 20.48 0 0 0 24.33024-3.4816l36.20864-36.20864a20.48 20.48 0 0 0 3.4816-24.33024l-38.35904-70.02112c8.99072-16.1792 16.19968-33.46432 21.4016-51.6096l76.5952-22.38464a20.48 20.48 0 0 0 14.7456-19.6608v-51.2a20.48 20.48 0 0 0-14.7456-19.6608l-76.5952-22.38464c-5.20192-18.14528-12.41088-35.4304-21.4016-51.6096l38.35904-70.02112a20.48 20.48 0 0 0-3.4816-24.33024l-36.20864-36.20864a20.48 20.48 0 0 0-24.33024-3.4816l-70.02112 38.35904c-16.1792-8.99072-33.46432-16.19968-51.6096-21.4016l-22.38464-76.5952a20.48 20.48 0 0 0-19.6608-14.7456h-51.2a20.48 20.48 0 0 0-19.6608 14.7456l-22.38464 76.5952a244.24448 244.24448 0 0 0-51.6096 21.4016l-70.02112-38.35904a20.48 20.48 0 0 0-24.33024 3.4816l-36.20864 36.20864a20.48 20.48 0 0 0-3.4816 24.33024l38.35904 70.02112a244.24448 244.24448 0 0 0-21.4016 51.6096L199.0656 338.7392a20.48 20.48 0 0 0-14.7456 19.6608v51.2a20.48 20.48 0 0 0 14.7456 19.6608l76.5952 22.38464c5.20192 18.14528 12.41088 35.4304 21.4016 51.6096l-38.35904 70.02112a20.48 20.48 0 0 0 3.4816 24.33024l36.20864 36.20864a20.48 20.48 0 0 0 24.33024 3.4816l70.02112-38.35904zM512 281.6a102.4 102.4 0 1 1 0 204.8 102.4 102.4 0 0 1 0-204.8z"  horiz-adv-x="1024" />

    
    <glyph glyph-name="icon_personal_bowser1" unicode="&#58979;" d="M512 578.56a432.5376 432.5376 0 0 0-74.87488 6.51264C459.8784 676.4544 494.10048 724.48 512 724.48c17.89952 0 52.1216-48.0256 74.87488-139.40736A441.26208 441.26208 0 0 0 512 578.56zM634.20416 596.2752c-11.81696 48.37376-27.60704 89.12896-46.12096 119.33696a339.968 339.968 0 0 0 146.80064-74.77248 412.3648 412.3648 0 0 0-100.67968-44.56448zM389.79584 596.2752a415.06816 415.06816 0 0 0-100.57728 44.56448 339.49696 339.49696 0 0 0 146.69824 74.69056c-18.51392-30.12608-34.22208-70.8608-46.12096-119.25504zM657.48992 408.30976a936.81664 936.81664 0 0 1-13.37344 140.20608 459.89888 459.89888 0 0 1 125.7472 57.1392 338.65728 338.65728 0 0 0 81.408-197.34528h-193.78176zM172.72832 408.30976A339.02592 339.02592 0 0 0 253.952 605.5936c37.7856-24.76032 80.26112-43.95008 125.952-56.97536a939.13088 939.13088 0 0 1-13.39392-140.288H172.72832zM415.15008 408.30976c1.1264 48.39424 5.57056 91.5456 12.0832 129.16736 27.4432-4.87424 55.66464-7.55712 84.76672-7.55712 29.02016 0 57.344 2.60096 84.7872 7.4752 6.49216-37.62176 10.8544-80.77312 12.06272-129.06496H415.1296zM769.88416 162.34496a459.89888 459.89888 0 0 1-125.76768 57.1392c7.55712 43.08992 12.24704 90.33728 13.37344 140.1856h193.78176a338.65728 338.65728 0 0 0-81.38752-197.3248zM427.2128 230.52288c-6.49216 37.60128-10.8544 80.77312-12.06272 129.14688h193.61792c-1.14688-48.29184-5.48864-91.4432-12.0832-129.06496A483.65568 483.65568 0 0 1 512 238.08a485.376 485.376 0 0 1-84.7872-7.55712zM254.03392 162.42688a338.45248 338.45248 0 0 0-81.2032 197.24288H366.592c1.14688-49.93024 5.8368-97.1776 13.39392-140.26752-45.69088-13.02528-88.1664-32.21504-125.952-56.97536zM512 43.52c-17.89952 0-52.1216 48.0256-74.87488 139.40736A441.26208 441.26208 0 0 0 512 189.44c25.62048 0 50.64704-2.3552 74.87488-6.51264-22.75328-91.38176-56.97536-139.40736-74.87488-139.40736zM588.0832 52.38784c18.51392 30.208 34.304 70.9632 46.12096 119.33696a413.98272 413.98272 0 0 0 100.67968-44.48256 339.18976 339.18976 0 0 0-146.80064-74.8544zM435.9168 52.38784a339.49696 339.49696 0 0 0-146.69824 74.69056 408.84224 408.84224 0 0 0 100.5568 44.56448c11.91936-48.29184 27.648-89.04704 46.14144-119.25504z"  horiz-adv-x="1024" />

    
    <glyph glyph-name="icon_personal_fankui" unicode="&#58980;" d="M550.6048 558.26432l173.7728-173.79328-317.17376-317.15328a32.768 32.768 0 0 0-24.92416-9.56416l-113.5616 6.144a40.96 40.96 0 0 0-38.7072 38.7072l-6.144 113.54112a32.768 32.768 0 0 0 9.56416 24.94464l317.17376 317.17376zM695.41888 645.14048l115.85536-115.85536a40.96 40.96 0 0 0 0-57.91744l-57.93792-57.91744-173.7728 173.7728 57.91744 57.91744a40.96 40.96 0 0 0 57.93792 0z"  horiz-adv-x="1024" />

    
    <glyph glyph-name="icon_personal_projec" unicode="&#58981;" d="M962.00704 41.6768V599.20384c0 66.90816-62.70976 61.952-62.70976 61.952H545.5872c-20.0704 0-32.60416 9.91232-32.60416 9.91232s-15.0528 24.7808-42.65984 64.4096c-25.06752 44.60544-57.69216 37.1712-57.69216 37.1712H139.22304C61.44 772.64896 61.44 700.8256 61.44 700.8256v-654.17216c0-81.77664 62.70976-71.86432 62.70976-71.86432h782.66368c65.2288 0 55.1936 66.90816 55.1936 66.90816zM256 179.2a51.2 51.2 0 1 0 0 102.4 51.2 51.2 0 0 0 0-102.4z m0 163.84a51.2 51.2 0 1 0 0 102.4 51.2 51.2 0 0 0 0-102.4z m497.82784-163.84H454.49216C429.54752 179.2 409.6 201.95328 409.6 230.4s19.94752 51.2 44.89216 51.2h299.33568C778.77248 281.6 798.72 258.84672 798.72 230.4s-19.94752-51.2-44.89216-51.2z m0 163.84H454.49216C429.54752 343.04 409.6 365.79328 409.6 394.24s19.94752 51.2 44.89216 51.2h299.33568C778.77248 445.44 798.72 422.68672 798.72 394.24s-19.94752-51.2-44.89216-51.2z"  horiz-adv-x="1024" />

    
    <glyph glyph-name="icon_personal_kefu" unicode="&#58982;" d="M775.10656 404.48C755.4048 532.0704 645.12 629.76 512 629.76c-133.12 0-243.4048-97.6896-263.10656-225.28h7.10656a71.68 71.68 0 0 0 71.68-71.68V179.2a20.48 20.48 0 0 0-20.48-20.48h-51.2A71.68 71.68 0 0 0 184.32 230.4V384c0 2.33472 0.38912 4.56704 1.10592 6.656C199.22944 558.94016 340.1728 691.2 512 691.2s312.77056-132.25984 326.57408-300.544A20.45952 20.45952 0 0 0 839.68 384v-153.6a71.68 71.68 0 0 0-71.68-71.68H716.8a20.48 20.48 0 0 0-20.48 20.48v153.6a71.68 71.68 0 0 0 71.68 71.68h7.10656zM563.2 117.76H798.72a61.44 61.44 0 0 0-61.44-61.44h-174.08a51.2 51.2 0 1 0 0 61.44z"  horiz-adv-x="1024" />

    
    <glyph glyph-name="icon_renzheng1" unicode="&#58983;" d="M910.023111 706.759111l-39.395555 0.625778c-0.910222 0-89.287111 1.820444-180.48 37.091555-93.610667 36.266667-153.912889 77.824-154.481778 78.250667L511.886222 839.111111l-23.665778-16.412444c-0.568889-0.398222-60.871111-41.984-154.453333-78.222223C242.574222 709.148444 154.168889 707.413333 153.344 707.413333L113.777778 706.759111v-382.634667C113.777778 131.982222 372.736-71.111111 511.971556-71.111111 651.292444-71.111111 910.222222 132.010667 910.222222 324.124444l-0.199111 382.634667zM343.04 152.462222V523.178667h-35.356444V556.942222h141.368888v-168.561778l177.976889 168.561778h140.174223L343.011556 152.462222z"  horiz-adv-x="1024" />

    
    <glyph glyph-name="icon_personal_bowser2" unicode="&#58984;" d="M512 119.82848l-185.61024-61.89056a31.6416 31.6416 0 0 0-41.63584 30.39232l2.39616 192.4096-116.44928 153.84576a31.6416 31.6416 0 0 0 15.9744 49.3568l186.368 57.1392 113.2544 157.61408a31.6416 31.6416 0 0 0 51.4048 0l113.2544-157.5936 186.368-57.15968a31.6416 31.6416 0 0 0 15.9744-49.3568l-116.46976-153.84576 2.41664-192.4096a31.6416 31.6416 0 0 0-41.65632-30.39232L512 119.808z"  horiz-adv-x="1024" />

    
    <glyph glyph-name="icon_personal_bowser3" unicode="&#58985;" d="M859.72992 128.55296v428.8512c0 51.48672-48.45568 47.65696-48.45568 47.65696H537.94816c-15.50336 0-25.1904 7.63904-25.1904 7.63904s-11.63264 19.0464-32.9728 49.5616c-19.37408 34.304-44.56448 28.59008-44.56448 28.59008H223.92832C163.84 690.85184 163.84 635.55584 163.84 635.55584v-503.1936c0-62.89408 48.45568-55.27552 48.45568-55.27552h604.7744c50.42176 0 42.65984 51.46624 42.65984 51.46624z m-545.54624 105.7792a39.46496 39.46496 0 0 0-39.56736 39.38304c0 21.74976 17.7152 39.38304 39.56736 39.38304s39.56736-17.6128 39.56736-39.38304a39.48544 39.48544 0 0 0-39.56736-39.38304z m0 126.03392a39.46496 39.46496 0 0 0-39.56736 39.38304c0 21.74976 17.7152 39.38304 39.56736 39.38304s39.56736-17.6128 39.56736-39.38304a39.46496 39.46496 0 0 0-39.56736-39.38304z m384.67584-126.03392H467.5584c-19.2512 0-34.69312 17.5104-34.69312 39.38304 0 21.89312 15.42144 39.38304 34.69312 39.38304h231.30112c19.27168 0 34.69312-17.48992 34.69312-39.38304 0-21.87264-15.42144-39.38304-34.69312-39.38304z m0 126.03392H467.5584c-19.2512 0-34.69312 17.5104-34.69312 39.38304 0 21.89312 15.42144 39.38304 34.69312 39.38304h231.30112c19.27168 0 34.69312-17.48992 34.69312-39.38304 0-21.87264-15.42144-39.38304-34.69312-39.38304z"  horiz-adv-x="1024" />

    
    <glyph glyph-name="icon_personal_bowser4" unicode="&#58986;" d="M668.54912 691.2a208.2816 208.2816 0 0 1-156.65152-71.53664A208.2816 208.2816 0 0 1 355.24608 691.2C247.3984 691.2 163.84 609.54624 163.84 503.9104c0-129.41312 118.31296-233.20576 297.65632-393.25696l29.73696-26.07104c11.8784-10.4448 29.65504-10.4448 41.53344 0l29.73696 26.07104C741.7856 270.70464 860.16 374.49728 860.16 503.9104 860.0576 609.54624 776.51968 691.2 668.54912 691.2z"  horiz-adv-x="1024" />

    


  </font>
</defs>
</svg>
